<?xml version="1.0" encoding="UTF-8"?><svg id="Layer_2" xmlns="http://www.w3.org/2000/svg" viewBox="0 0 1876 363"><defs><style>.cls-1,.cls-2{fill:#fff;}.cls-1,.cls-3,.cls-4,.cls-5{font-family:Kandani-Regular, Kandani;}.cls-6,.cls-7,.cls-8{font-size:336.52px;}.cls-3{stroke-width:35px;}.cls-3,.cls-5{fill:none;stroke:#fff;stroke-linejoin:round;}.cls-7{letter-spacing:0em;}.cls-9{font-size:397.09px;}.cls-8{letter-spacing:-.1em;}.cls-4{fill:#e5007e;}.cls-5{stroke-width:13.46px;}</style></defs><g><text class="cls-1" transform="translate(16.78 290.05)"><tspan class="cls-9" x="0" y="0">S</tspan><tspan class="cls-6" x="231.9" y="-26.92">cott</tspan><tspan class="cls-8" x="592.97" y="-26.92" xml:space="preserve"> &amp; </tspan><tspan class="cls-7" x="853.43" y="-26.92">Kestelle</tspan></text><text class="cls-3" transform="translate(23.51 302.17)"><tspan class="cls-9" x="0" y="0">S</tspan><tspan class="cls-6" x="231.9" y="-26.92">cott</tspan><tspan class="cls-8" x="592.97" y="-26.92" xml:space="preserve"> &amp; </tspan><tspan class="cls-7" x="853.43" y="-26.92">Kestelle</tspan></text><text class="cls-5" transform="translate(16.78 290.05)"><tspan class="cls-9" x="0" y="0">S</tspan><tspan class="cls-6" x="231.9" y="-26.92">cott</tspan><tspan class="cls-8" x="592.97" y="-26.92" xml:space="preserve"> &amp; </tspan><tspan class="cls-7" x="853.43" y="-26.92">Kestelle</tspan></text><text class="cls-4" transform="translate(16.78 290.05)"><tspan class="cls-9" x="0" y="0">S</tspan><tspan class="cls-6" x="231.9" y="-26.92">cott</tspan><tspan class="cls-8" x="592.97" y="-26.92" xml:space="preserve"> &amp; </tspan><tspan class="cls-7" x="853.43" y="-26.92">Kestelle</tspan></text></g><path class="cls-2" d="M133.42,190.54c-.77,6.66,6.04,12.54,12.74,12.32,6.7-.22,12.54-5.17,15.62-11.12,1.13-2.18,1.96-4.81,.93-7.04-1.52-3.3-5.95-3.73-9.58-3.69-4.66,.05-9.82,.31-13.11,3.6-.79,.79-1.52,1.79-2.62,2.03-.68,.15-1.46,0-2.05,.37-1.52,.96-.73,4.5-2.51,4.26"/><path class="cls-2" d="M236.27,159.71c-2.31,.2-4.71,.42-6.73,1.59-3.34,1.94-4.85,6.22-4.28,10.04,.13,.86,.36,1.74,.93,2.4,.54,.62,1.32,.97,2.11,1.22,2.41,.76,4.99,.67,7.51,.57,.87-.03,1.76-.07,2.59-.37,.94-.34,1.72-.99,2.48-1.63,1.99-1.68,4.03-3.53,4.82-6.02,.22-.71,.33-1.49,.04-2.17-.17-.4-.48-.73-.78-1.05-2.69-2.81-4.76-4.92-8.7-4.58Z"/><path class="cls-2" d="M477.32,111.69c.16,1.09,.43,2.17,.94,3.15,1.4,2.66,4.49,4.08,7.49,4.3,.8,.06,1.62,.04,2.37-.26,1.21-.5,2-1.67,2.59-2.84,1.4-2.75,3.05-7.47,2.13-10.6-.62-2.09-3.72-3.75-5.84-4.28-1.82-.46-5.7-.7-7.37,.12-2.92,1.44-2.7,7.73-2.31,10.41Z"/><path class="cls-2" d="M1696.64,252.42c15.12-.61,5.87-16.41-4.72-13.95-3.65,.85-10.97,5.12-10.48,9.57,.61,5.53,11.27,4.53,15.2,4.37Z"/></svg>