<?xml version="1.0" encoding="utf-8"?>
<!-- Generator: Adobe Illustrator 27.0.0, SVG Export Plug-In . SVG Version: 6.00 Build 0)  -->
<svg version="1.1" id="Layer_2_00000003812632827876571020000010366376832978753154_"
	 xmlns="http://www.w3.org/2000/svg" xmlns:xlink="http://www.w3.org/1999/xlink" x="0px" y="0px" viewBox="0 0 1876 363"
	 style="enable-background:new 0 0 1876 363;" xml:space="preserve">
<style type="text/css">
	.st0{enable-background:new    ;}
	.st1{fill:#FFFFFF;}
	.st2{fill:none;stroke:#FFFFFF;stroke-width:35;stroke-linejoin:round;}
	.st3{fill:none;stroke:#FFFFFF;stroke-width:13.46;stroke-linejoin:round;}
	.st4{fill:#E5007E;}
</style>
<g>
	<g class="st0">
		<path class="st1" d="M218.9,78.4c0.8,1.1,1.7,2,2.8,2.8c1.1,0.5,2.2,1.1,3.6,1.8c1.3,0.7,3,1,5.2,1c7.7,0,13.5-2.6,17.5-7.9
			c4-5.3,6-11,6-17.1c0-7.7-2-13.3-6-16.9c-4-3.6-9-5.4-15.1-5.4c-4.5,0-9.1,1.3-13.7,3.8c-4.6,2.5-8.8,6.1-12.5,10.7
			c-3.7,4.6-6.7,10.3-8.9,16.9c-2.3,6.6-3.4,14-3.4,22.2c0,9.8,1.1,19,3.2,27.6c2.1,8.6,4.4,17.3,6.9,26.2c2.5,8.9,4.8,18.2,6.9,28
			c2.1,9.8,3.2,20.8,3.2,33c0,10.1-2.1,20.2-6.4,30.4c-4.2,10.2-10.3,19.3-18.1,27.4c-7.8,8.1-17.3,14.6-28.6,19.7
			c-11.3,5-24,7.5-38.3,7.5c-17.2,0-32-2.7-44.5-8.1c-12.4-5.4-22.8-12.5-31-21.2c-8.2-8.7-14.2-18.7-18.1-30
			c-3.8-11.2-5.8-22.7-5.8-34.3c0-11.1,2-21.5,6-31.2c4-9.7,9.5-18.1,16.5-25.4c7-7.3,15.2-13,24.6-17.3c9.4-4.2,19.4-6.4,30-6.4
			c6.4,0,12.2,1,17.7,3c5.4,2,10,4.7,13.7,8.1c3.7,3.4,6.6,7.3,8.7,11.5c2.1,4.2,3.2,8.7,3.2,13.5c0,5.3-1.1,9.5-3.2,12.5
			c-2.1,3-4.1,5.2-6,6.6c-1.9-1.1-4-1.6-6.4-1.6c-4,0-7.7,1.7-11.1,5c-3.4,3.3-5.2,7.6-5.2,12.9c0,8.5,2.7,14.9,8.1,19.3
			c5.4,4.4,11.6,6.6,18.5,6.6c3.7,0,7.5-0.7,11.3-2.2c3.8-1.5,7.2-3.6,10.1-6.4c2.9-2.8,5.3-6.4,7.1-10.9c1.8-4.5,2.8-9.7,2.8-15.5
			c0-6.9-0.6-13.7-1.8-20.5c-1.2-6.8-2.5-13.8-3.8-21c-1.3-7.3-2.6-15-3.8-23c-1.2-8.1-1.8-16.6-1.8-25.6c0-11.6,2.3-22.2,6.9-31.6
			c4.6-9.4,10.6-17.3,17.9-23.8c7.3-6.5,15.4-11.5,24.4-15.1c9-3.6,17.9-5.4,26.6-5.4c7.1,0,14,1.2,20.6,3.6
			c6.6,2.4,12.4,5.9,17.3,10.5C278,31.2,282,37,285,43.9c3,6.9,4.6,14.8,4.6,23.8c0,9.8-1.6,18.3-4.8,25.4
			c-3.2,7.1-7.1,13.1-11.9,17.9s-10,8.3-15.7,10.5c-5.7,2.3-11.2,3.4-16.5,3.4c-4.5,0-8.6-0.9-12.3-2.6c-3.7-1.7-6.8-3.9-9.3-6.6
			c-2.5-2.6-4.5-5.7-6-9.1c-1.5-3.4-2.2-6.9-2.2-10.3c0-2.9,0.6-5.9,1.8-8.9C213.9,84.3,216,81.3,218.9,78.4z"/>
	</g>
	<g class="st0">
		<path class="st1" d="M328.4,104.3c5.4,0,10,0.9,14,2.7c3.9,1.8,7.2,4,9.8,6.7c2.6,2.7,4.4,5.7,5.6,8.9c1.1,3.3,1.7,6.5,1.7,9.6
			c0,3.8-0.8,7.9-2.5,12.3s-4.1,8.4-7.2,12.1c-3.1,3.7-6.9,6.7-11.3,9.1c-4.4,2.4-9.4,3.5-15,3.5c-5.2,0-9.5-1.2-13-3.5
			c-3.5-2.4-5.2-6.1-5.2-11.3c0-2,0.3-3.9,0.8-5.6c0.6-1.7,1.2-3.1,1.9-4.2c0.7-1.6,1.5-2.9,2.4-4c0.4,0.2,1,0.5,1.7,0.7
			c1.3,0.5,2.8,0.7,4.4,0.7c5.2,0,9.6-1.7,13.5-5c3.8-3.4,5.7-7,5.7-10.8c0-3.4-1-5.4-2.9-6.1c-1.9-0.7-3.3-1-4.2-1
			c-4.7,0-9.4,1.6-14.1,4.9c-4.7,3.3-9,7.3-12.8,12.1c-3.8,4.8-7,10.2-9.4,16c-2.5,5.8-3.7,11.3-3.7,16.5c0,9.4,2.4,16.7,7.2,21.9
			c4.8,5.2,10.6,7.7,17.3,7.7c10.1,0,20.1-2.8,30.1-8.4c10-5.6,18.2-15.6,24.7-30c1.3-1.3,3-2,5-2c1.3,0,2.6,0.5,3.7,1.3
			c1.1,0.9,1.6,2.1,1.3,3.7c-3.4,10.1-8,19.7-13.8,28.8c-5.8,9.1-12.5,17.1-20,24.1c-7.5,7-15.9,12.5-25.1,16.5
			c-9.2,4-19,6.2-29.3,6.4c-8.3,0-15.4-1.1-21.4-3.4c-5.9-2.2-10.9-5.4-14.8-9.4c-3.9-4-6.8-8.8-8.6-14.1
			c-1.8-5.4-2.7-11.1-2.7-17.2c0-10.8,2.1-21.5,6.4-32.3s10.2-20.5,17.8-29.1c7.6-8.6,16.7-15.6,27.3-20.9
			C304.3,106.9,315.9,104.3,328.4,104.3z"/>
		<path class="st1" d="M359.7,198.2c0-13.2,2.6-25.6,7.9-37c5.3-11.4,11.9-21.4,19.9-29.8c8-8.4,16.5-15,25.7-19.9
			c9.2-4.8,17.7-7.2,25.6-7.2c9.6,0,16.5,2.8,20.5,8.4c4,5.6,6.1,12.7,6.1,21.2c0,6.1-1,12.7-2.9,19.9c-1.9,7.2-4.4,14.5-7.6,21.9
			c0.4,1.8,1.2,3.4,2.4,4.7c1.1,1.3,3.1,2,6.1,2c2.5,0,4.5-0.7,6.2-2.2c1.7-1.5,3.2-3.2,4.5-5.4c1.3-2.1,2.5-4.5,3.5-7.2
			c1-2.7,2-5.3,2.9-7.7c1.3-1.3,2.9-2,4.7-2c1.3,0,2.5,0.5,3.5,1.3c1,0.9,1.4,2.1,1.2,3.7c-0.7,4.5-2.1,9-4.4,13.6
			c-2.2,4.6-5.2,8.8-8.8,12.6c-3.6,3.8-7.6,6.9-12.1,9.3c-4.5,2.4-9.3,3.5-14.5,3.5c-2.9,0-5.8-0.6-8.8-1.7
			c-7.2,10.8-15.3,19.9-24.2,27.3c-9,7.4-17.8,11.1-26.6,11.1c-5.4,0-10-1.1-14-3.2c-3.9-2.1-7.2-5-9.8-8.8c-2.6-3.7-4.4-8-5.6-12.8
			C360.3,209,359.7,203.8,359.7,198.2z M398.1,183.4c0,4.5,0.8,8.1,2.5,10.8c1.7,2.7,4.4,4,8.2,4c2.9,0,6-1.1,9.3-3.2
			c3.2-2.1,6.4-5,9.6-8.6c-1.3-3.1-2-6.6-2-10.4c0-6.7,2-12.7,6.1-18c4-5.3,9.6-7.9,16.8-7.9c0.7-2.5,1.2-4.8,1.7-7.1
			c0.4-2.2,0.7-4.4,0.7-6.4c0-3.4-0.8-6.1-2.4-8.2c-1.6-2.1-4-3.2-7.4-3.2c-4.9,0-10,2-15.1,5.9c-5.2,3.9-9.8,8.8-14,14.6
			c-4.2,5.8-7.5,12.1-10.1,18.8C399.4,171.3,398.1,177.5,398.1,183.4z"/>
		<path class="st1" d="M510.8,85.8c1.3-5.6,2.2-10.8,2.5-15.5c0.3-4.7-0.1-9-1.2-12.8c1.3-2.7,3.7-4.9,7.1-6.6s7.3-2.5,11.8-2.5
			c5.4,0,10.3,1.7,14.6,5c4.4,3.4,6.6,9.3,6.6,17.8c0,1.8-0.2,3.9-0.7,6.4c-0.5,2.5-1,5.2-1.7,8.1h14.5c0,1.8-0.1,3.6-0.3,5.6
			c-0.2,1.9-0.7,3.6-1.5,5.2c-0.8,1.6-1.9,2.9-3.4,3.9c-1.5,1-3.4,1.5-5.9,1.5h-8.7c-2.9,8.5-6.4,17.6-10.4,27.1
			c-4,9.5-7.9,18.5-11.6,26.9c-3.7,8.4-6.8,15.8-9.3,22.2c-2.5,6.4-3.7,10.6-3.7,12.6c0,4.9,2.5,7.4,7.4,7.4c3.8,0,7.5-2,10.9-6.1
			c3.5-4,6.6-8.4,9.3-13.1c3.1-5.6,6.1-12,8.8-19.2c1.3-1.3,2.9-2,4.7-2c1.3,0,2.5,0.5,3.5,1.3c1,0.9,1.4,2.1,1.2,3.7
			c-3.4,11.2-7.7,21.5-13.1,30.8c-5.4,9.3-11.3,17.3-17.7,23.9c-6.4,6.6-13.1,11.8-20,15.5c-7,3.7-13.7,5.6-20.2,5.6
			c-6.5,0-11.9-1.8-16.3-5.4c-4.4-3.6-6.6-9.1-6.6-16.5c0-6.1,1.6-13.6,4.9-22.5c3.3-9,7.2-18.6,11.9-28.8
			c4.7-10.2,9.6-20.8,14.6-31.8c5-11,9.4-21.5,13-31.6h-14.5c-0.2-3.8,0.8-7.5,3-10.9c2.2-3.5,4.6-5.2,7.1-5.2H510.8z"/>
		<path class="st1" d="M575.8,85.8c1.3-5.6,2.2-10.8,2.5-15.5c0.3-4.7-0.1-9-1.2-12.8c1.3-2.7,3.7-4.9,7.1-6.6s7.3-2.5,11.8-2.5
			c5.4,0,10.3,1.7,14.6,5c4.4,3.4,6.6,9.3,6.6,17.8c0,1.8-0.2,3.9-0.7,6.4c-0.5,2.5-1,5.2-1.7,8.1h14.5c0,1.8-0.1,3.6-0.3,5.6
			c-0.2,1.9-0.7,3.6-1.5,5.2c-0.8,1.6-1.9,2.9-3.4,3.9c-1.5,1-3.4,1.5-5.9,1.5h-8.7c-2.9,8.5-6.4,17.6-10.4,27.1
			c-4,9.5-7.9,18.5-11.6,26.9c-3.7,8.4-6.8,15.8-9.3,22.2c-2.5,6.4-3.7,10.6-3.7,12.6c0,4.9,2.5,7.4,7.4,7.4c3.8,0,7.5-2,10.9-6.1
			c3.5-4,6.6-8.4,9.3-13.1c3.1-5.6,6.1-12,8.8-19.2c1.3-1.3,2.9-2,4.7-2c1.3,0,2.5,0.5,3.5,1.3c1,0.9,1.4,2.1,1.2,3.7
			c-3.4,11.2-7.7,21.5-13.1,30.8c-5.4,9.3-11.3,17.3-17.7,23.9c-6.4,6.6-13.1,11.8-20,15.5c-7,3.7-13.7,5.6-20.2,5.6
			c-6.5,0-11.9-1.8-16.3-5.4c-4.4-3.6-6.6-9.1-6.6-16.5c0-6.1,1.6-13.6,4.9-22.5c3.3-9,7.2-18.6,11.9-28.8
			c4.7-10.2,9.6-20.8,14.6-31.8c5-11,9.4-21.5,13-31.6h-14.5c-0.2-3.8,0.8-7.5,3-10.9c2.2-3.5,4.6-5.2,7.1-5.2H575.8z"/>
	</g>
	<g class="st0">
		<path class="st1" d="M742,238.6c-10.5,0-19.7-1.3-27.4-3.9c-7.7-2.6-14.2-6.2-19.4-10.9c-5.2-4.7-9-10.3-11.4-16.7
			c-2.5-6.4-3.7-13.3-3.7-20.7c0-9.9,1.7-18.4,5.2-25.6c3.5-7.2,8.1-13.6,14-19.2c5.8-5.6,12.5-10.4,19.9-14.5s15.1-7.7,23.2-11.1
			c2.7-15.9,6.6-29.2,11.8-39.9c5.2-10.7,10.8-19.2,17-25.7c6.2-6.5,12.5-11.2,18.8-14c6.4-2.8,12.2-4.2,17.3-4.2
			c5.2,0,9.9,1,14.3,2.9c4.4,1.9,8.2,4.4,11.4,7.4c3.2,3,5.8,6.6,7.7,10.6c1.9,4,2.9,8.2,2.9,12.5c0,10.1-2.2,18.7-6.7,25.9
			c-4.5,7.2-10.2,13.5-17.2,18.8c-7,5.4-14.7,10-23.2,14c-8.5,3.9-16.8,7.6-24.9,10.9c0,6.7,0.4,13.4,1.3,19.9
			c0.9,6.5,2.2,12.7,4,18.5c5.8-3.6,10.8-7.7,15-12.3c4.1-4.6,6.2-9,6.2-13.3c9.4,0,16.3,2.8,20.7,8.2c4.4,5.5,6.6,12.2,6.6,20
			c0,6.7-1.7,13.7-5,21c-3.4,7.3-8.4,14-15.1,20c3.1,2.2,6.6,4,10.4,5.2c3.8,1.2,7.8,1.9,12.1,1.9c0.7,2.7,0.6,6-0.3,9.9
			c-0.9,3.9-2.6,7.7-5.2,11.4c-2.6,3.7-6,6.8-10.3,9.4c-4.3,2.6-9.4,3.9-15.5,3.9c-7.9,0-14.9-2-21.2-5.9
			c-6.3-3.9-11.8-9.1-16.5-15.6C753.9,238.2,748.3,238.6,742,238.6z M739,151.7c-3.1,2.5-5.6,5.1-7.4,7.9c-1.8,2.8-2.7,5.9-2.7,9.3
			c0,7.9,3.8,12.7,11.4,14.5c-0.5-3.8-0.8-7.6-1-11.4c-0.2-3.8-0.3-7.7-0.3-11.8V151.7z M774,103.6c5.8-2.5,11.3-4.9,16.3-7.4
			c5-2.5,9.5-5.2,13.3-8.2c3.8-3,6.8-6.3,8.9-9.9c2.1-3.6,3.2-7.7,3.2-12.5c0-8.3-3.4-12.5-10.1-12.5c-7.9,0-14.5,4.7-20,14.1
			C780.1,76.7,776.2,88.8,774,103.6z"/>
	</g>
	<g class="st0">
		<path class="st1" d="M879.3,204.9c0-7.2,1.2-14.2,3.7-21.2c2.5-7,5.9-13.1,10.3-18.5c4.4-5.4,9.6-9.8,15.8-13.1
			c6.2-3.4,13.1-5,20.7-5c6.5,0,11.9,1.6,16.3,4.7c4.4,3.1,6.6,7.6,6.6,13.5c-2.7,0-4.9,1.4-6.6,4.2c-1.7,2.8-2.5,6.1-2.5,9.9
			c0,4.5,1.5,8.8,4.5,12.8c3,4,8.1,6.1,15.3,6.1c5.6,0,10.9-1.6,16-4.7c5-3.1,9.9-7.3,14.5-12.6c4.6-5.3,9-11.5,13.1-18.7
			c4.1-7.2,8.2-14.8,12.3-22.9c-3.1-4.3-4.7-8.9-4.7-13.8c0-6.1,2.2-11.3,6.6-15.6c4.4-4.4,9.6-7.3,15.6-8.9
			c3.4-7.9,6.7-15.4,10.1-22.5c3.4-7.2,6.8-13.9,10.4-20.2c-7.4-2.5-15-5-22.9-7.6c-7.9-2.6-15.9-3.9-24.2-3.9
			c-4.7,0-8.9,0.8-12.5,2.4c-3.6,1.6-6.6,3.6-8.9,6.1c-2.4,2.5-4.2,5.3-5.4,8.4c-1.2,3.1-1.9,6.3-1.9,9.4c0,6.3,1.5,11.2,4.5,14.6
			c3,3.5,5.9,5.6,8.6,6.2c0,3.1-1.1,6.6-3.2,10.4c-2.1,3.8-5,7.4-8.7,10.8c-3.7,3.4-8,6.2-13,8.6c-4.9,2.4-10.3,3.5-16.2,3.5
			c-5.6,0-10.8-1.1-15.5-3.2c-4.7-2.1-8.8-5-12.1-8.6c-3.4-3.6-5.9-7.9-7.7-12.8c-1.8-4.9-2.7-10.2-2.7-15.8
			c0-6.7,1.5-13.6,4.5-20.5c3-7,7.6-13.3,13.8-19c6.2-5.7,13.9-10.4,23.2-14c9.3-3.6,20.1-5.4,32.5-5.4c6.7,0,13.3,0.7,19.9,2
			c6.5,1.3,12.8,2.9,19,4.7c6.2,1.8,12.3,3.8,18.3,5.9c6.1,2.1,12,4,17.8,5.6c4-5.8,8.1-10.4,12.1-13.6c4-3.2,8.3-4.9,12.8-4.9
			c5.2,0,9.6,1.7,13.3,5.2c3.7,3.5,5.6,7.6,5.6,12.3c0,5.4-2.1,9.9-6.2,13.6c-4.2,3.7-9.9,5.6-17.3,5.6c-4,0-7.9-0.4-11.4-1.3
			c-2,5.6-4,11.9-5.9,19c-1.9,7.1-4,14.5-6.2,22.4c4.5,2.7,8.2,6.5,11.1,11.4c14.8-10.1,27.3-20.4,37.4-30.8s19-19.9,26.8-28.4
			c7.7-8.5,15-15.5,21.7-21c6.7-5.5,14.4-8.2,22.9-8.2c2.7,0,5.6,0.5,8.8,1.3c3.1,0.9,6.1,2.4,8.7,4.5c2.7,2.1,4.9,5,6.6,8.7
			s2.5,8.4,2.5,14c0,4.7-1,8.9-2.9,12.5c-1.9,3.6-4.3,6.7-7.2,9.3c-2.9,2.6-6.1,4.5-9.6,5.9c-3.5,1.3-6.8,2-9.9,2
			c-2,0-3.6-0.3-4.9-0.8c-1.2-0.6-2.4-1.1-3.5-1.5c0-2.5-0.3-4.6-1-6.4c-0.7-1.8-1.7-3.3-3.2-4.5c-1.5-1.2-3.8-1.9-6.9-1.9
			c-2.9,0-7.1,2.2-12.6,6.6c-5.5,4.4-11.7,9.8-18.7,16.2c-7,6.4-14.5,13-22.5,19.9c-8.1,6.8-16.4,12.8-24.9,18
			c2.7,7.4,4.9,15.5,6.6,24.4c1.7,8.9,3.4,17.8,5.2,26.9c1.8,9.1,4,17.8,6.6,26.2c2.6,8.4,5.9,15.9,10.1,22.5
			c4.1,6.6,9.4,11.9,15.6,15.8c6.3,3.9,14.1,5.9,23.6,5.9c5.2,0,10-1.4,14.5-4.2c4.5-2.8,7.3-6,8.4-9.6c5.2,2.7,8.7,6.2,10.6,10.6
			c1.9,4.4,2.9,9.8,2.9,16.3c0,5.4-1.3,10.8-3.9,16.3c-2.6,5.5-6.3,10.4-11.1,14.8c-4.8,4.4-10.8,8-18,10.8
			c-7.2,2.8-15.5,4.2-24.9,4.2c-11.4,0-20.8-2-28.1-5.9c-7.3-3.9-13.1-9.2-17.3-15.8c-4.3-6.6-7.2-14.2-8.9-22.9
			c-1.7-8.6-2.7-17.6-3-26.9c-0.3-9.3-0.3-18.7,0.2-28.3c0.4-9.5,0.7-18.5,0.7-26.9s-0.5-15.9-1.5-22.5c-1-6.6-3.1-11.7-6.2-15.3
			c-4.7,2.5-9.5,4-14.5,4.7c-4.7,13.9-10.2,27.5-16.5,40.7c-6.3,13.2-13.7,25.1-22.4,35.5c-8.6,10.4-18.7,18.8-30.1,25.2
			c-11.4,6.4-24.8,9.6-40,9.6c-9.6,0-18.2-1.7-25.6-5c-7.4-3.4-13.6-7.8-18.5-13.3c-4.9-5.5-8.6-11.7-11.1-18.7
			C880.5,219.2,879.3,212.1,879.3,204.9z M1091.3,39.7c-4,0-7.9,3.1-11.4,9.4c1.8,0.2,3.5,0.4,5.2,0.5c1.7,0.1,3.4,0.2,5.2,0.2
			c2,0,3.9-0.4,5.7-1.3c1.8-0.9,2.7-2.2,2.7-4C1098.7,41.3,1096.2,39.7,1091.3,39.7z"/>
		<path class="st1" d="M1130,194.5c0-10.8,2.1-21.5,6.4-32.3s10.2-20.5,17.8-29.1c7.6-8.6,16.7-15.6,27.3-20.9
			c10.5-5.3,22.1-7.9,34.7-7.9c10.5,0,18.3,2.4,23.2,7.2c4.9,4.8,7.4,10.8,7.4,18c0,5.6-1.5,11.6-4.4,17.8
			c-2.9,6.3-7.2,12.1-13,17.3c-5.7,5.3-12.8,9.8-21.2,13.5c-8.4,3.7-18,5.9-28.8,6.6c2.2,4.3,5.2,7.6,8.9,9.9
			c3.7,2.4,7.8,3.5,12.3,3.5c10.1,0,20.1-2.8,30.1-8.4c10-5.6,18.2-15.6,24.7-30c1.3-1.3,3-2,5-2c1.3,0,2.6,0.5,3.7,1.3
			c1.1,0.9,1.6,2.1,1.3,3.7c-3.4,10.1-8,19.7-13.8,28.8c-5.8,9.1-12.5,17.1-20,24.1c-7.5,7-15.9,12.5-25.1,16.5
			c-9.2,4-19,6.2-29.3,6.4c-8.3,0-15.4-1.1-21.4-3.4c-5.9-2.2-10.9-5.4-14.8-9.4c-3.9-4-6.8-8.8-8.6-14.1
			C1130.9,206.3,1130,200.5,1130,194.5z M1176.4,172.9c7,0,13.3-1.7,19.2-5c5.8-3.4,10.9-7.4,15.3-12.1c4.4-4.7,7.8-9.7,10.3-15
			c2.5-5.3,3.7-9.8,3.7-13.6c0-2.5-0.7-4.4-2-5.9c-1.3-1.5-3.6-2.2-6.7-2.2c-4.7,0-9.4,1.6-14.1,4.9c-4.7,3.3-9,7.3-12.8,12.1
			c-3.8,4.8-7,10.2-9.4,16c-2.5,5.8-3.7,11.3-3.7,16.5C1176.1,170.6,1176.2,172,1176.4,172.9z"/>
		<path class="st1" d="M1297.9,242.9c-10.3,0-19.2-1.5-26.8-4.5c-7.5-3-13.7-6.9-18.5-11.6c-4.8-4.7-8.4-10-10.6-16
			c-2.2-5.9-3.4-11.8-3.4-17.7c0-7.6,1.1-14.2,3.4-19.9c2.2-5.6,5.2-10.3,8.9-14c3.7-3.7,7.8-6.5,12.3-8.4c4.5-1.9,8.9-2.9,13.1-2.9
			c7,0,12.9,2.3,17.8,6.9c4.9,4.6,6.8,11.6,5.7,21c-2.9,0-5.6,1.1-7.9,3.2c-2.4,2.1-3.5,4.8-3.5,7.9c0,2.9,1.1,5.5,3.4,7.7
			c2.2,2.2,6.1,3.4,11.4,3.4c4.5,0,8.5-1.5,12.1-4.4c3.6-2.9,5.4-7.3,5.4-13.1c0-4.5-1.1-8.6-3.2-12.5c-2.1-3.8-4.5-7.6-7.2-11.3
			c-2.7-3.7-5.1-7.5-7.2-11.4c-2.1-3.9-3.2-8.4-3.2-13.3c0-4.9,1.1-9.5,3.2-13.8c2.1-4.3,5-7.9,8.6-10.9c3.6-3,7.7-5.4,12.5-7.2
			c4.7-1.8,9.6-2.7,14.8-2.7c4.7,0,9.2,0.6,13.5,1.7c4.3,1.1,8,2.8,11.3,5c3.2,2.2,5.8,5,7.7,8.2c1.9,3.3,2.9,7,2.9,11.3
			c0,5.8-1.6,11-4.9,15.5c-3.3,4.5-8.2,6.7-15,6.7c-6.3,0-11.1-1.7-14.3-5c-3.3-3.4-4.9-7.6-4.9-12.8c2,0,4.1-0.4,6.4-1.3
			c2.2-0.9,3.4-2.6,3.4-5c0-1.8-0.9-3.2-2.7-4.2c-1.8-1-3.8-1.5-6.1-1.5c-3.1,0-6,1.2-8.6,3.7c-2.6,2.5-3.9,6.2-3.9,11.1
			c0,4.5,2,8.7,5.9,12.8c3.9,4,8.2,8.3,13,12.8c4.7,4.5,9,9.5,13,15.1c3.9,5.6,5.9,12.2,5.9,19.9c0,1.1,0,2.2,0,3.4
			c0,1.1-0.1,2.2-0.3,3.4c3.8,0,7.3-1.5,10.6-4.5c3.2-3,6.2-6.6,8.8-10.8c2.6-4.1,4.8-8.4,6.6-12.8c1.8-4.4,3.1-7.8,4-10.3
			c1.3-1.3,2.9-2,4.7-2c1.3,0,2.5,0.5,3.5,1.3c1,0.9,1.4,2.1,1.2,3.7C1385.1,216.2,1350.9,242.9,1297.9,242.9z"/>
		<path class="st1" d="M1421.1,85.8c1.3-5.6,2.2-10.8,2.5-15.5c0.3-4.7-0.1-9-1.2-12.8c1.3-2.7,3.7-4.9,7.1-6.6s7.3-2.5,11.8-2.5
			c5.4,0,10.3,1.7,14.6,5c4.4,3.4,6.6,9.3,6.6,17.8c0,1.8-0.2,3.9-0.7,6.4c-0.5,2.5-1,5.2-1.7,8.1h14.5c0,1.8-0.1,3.6-0.3,5.6
			c-0.2,1.9-0.7,3.6-1.5,5.2c-0.8,1.6-1.9,2.9-3.4,3.9c-1.5,1-3.4,1.5-5.9,1.5h-8.7c-2.9,8.5-6.4,17.6-10.4,27.1
			c-4,9.5-7.9,18.5-11.6,26.9c-3.7,8.4-6.8,15.8-9.3,22.2c-2.5,6.4-3.7,10.6-3.7,12.6c0,4.9,2.5,7.4,7.4,7.4c3.8,0,7.5-2,10.9-6.1
			c3.5-4,6.6-8.4,9.3-13.1c3.1-5.6,6.1-12,8.8-19.2c1.3-1.3,2.9-2,4.7-2c1.3,0,2.5,0.5,3.5,1.3c1,0.9,1.4,2.1,1.2,3.7
			c-3.4,11.2-7.7,21.5-13.1,30.8c-5.4,9.3-11.3,17.3-17.7,23.9c-6.4,6.6-13.1,11.8-20,15.5c-7,3.7-13.7,5.6-20.2,5.6
			c-6.5,0-11.9-1.8-16.3-5.4c-4.4-3.6-6.6-9.1-6.6-16.5c0-6.1,1.6-13.6,4.9-22.5c3.3-9,7.2-18.6,11.9-28.8
			c4.7-10.2,9.6-20.8,14.6-31.8c5-11,9.4-21.5,13-31.6h-14.5c-0.2-3.8,0.8-7.5,3-10.9c2.2-3.5,4.6-5.2,7.1-5.2H1421.1z"/>
		<path class="st1" d="M1448.7,194.5c0-10.8,2.1-21.5,6.4-32.3s10.2-20.5,17.8-29.1c7.6-8.6,16.7-15.6,27.3-20.9
			c10.5-5.3,22.1-7.9,34.7-7.9c10.5,0,18.3,2.4,23.2,7.2c4.9,4.8,7.4,10.8,7.4,18c0,5.6-1.5,11.6-4.4,17.8
			c-2.9,6.3-7.2,12.1-13,17.3c-5.7,5.3-12.8,9.8-21.2,13.5c-8.4,3.7-18,5.9-28.8,6.6c2.2,4.3,5.2,7.6,8.9,9.9
			c3.7,2.4,7.8,3.5,12.3,3.5c10.1,0,20.1-2.8,30.1-8.4c10-5.6,18.2-15.6,24.7-30c1.3-1.3,3-2,5-2c1.3,0,2.6,0.5,3.7,1.3
			c1.1,0.9,1.6,2.1,1.3,3.7c-3.4,10.1-8,19.7-13.8,28.8c-5.8,9.1-12.5,17.1-20,24.1c-7.5,7-15.9,12.5-25.1,16.5
			c-9.2,4-19,6.2-29.3,6.4c-8.3,0-15.4-1.1-21.4-3.4c-5.9-2.2-10.9-5.4-14.8-9.4c-3.9-4-6.8-8.8-8.6-14.1
			C1449.6,206.3,1448.7,200.5,1448.7,194.5z M1495.1,172.9c7,0,13.3-1.7,19.2-5c5.8-3.4,10.9-7.4,15.3-12.1c4.4-4.7,7.8-9.7,10.3-15
			c2.5-5.3,3.7-9.8,3.7-13.6c0-2.5-0.7-4.4-2-5.9c-1.3-1.5-3.6-2.2-6.7-2.2c-4.7,0-9.4,1.6-14.1,4.9c-4.7,3.3-9,7.3-12.8,12.1
			c-3.8,4.8-7,10.2-9.4,16c-2.5,5.8-3.7,11.3-3.7,16.5C1494.8,170.6,1494.9,172,1495.1,172.9z"/>
		<path class="st1" d="M1605.2,57.5c1.3-2.7,3.7-4.9,7.1-6.6s7.3-2.5,11.8-2.5c5.4,0,10.3,1.7,14.6,5c4.4,3.4,6.6,9.3,6.6,17.8
			c0,4.3-1.1,9.9-3.2,16.8c-2.1,7-4.8,14.5-7.9,22.7c-3.1,8.2-6.6,16.6-10.3,25.2c-3.7,8.6-7.1,16.7-10.3,24.2
			c-3.1,7.5-5.8,14-7.9,19.5c-2.1,5.5-3.2,9.1-3.2,10.9c0,4.9,2.5,7.4,7.4,7.4c3.8,0,7.5-2,10.9-6.1c3.5-4,6.6-8.4,9.3-13.1
			c3.1-5.6,6.1-12,8.8-19.2c1.3-1.3,2.9-2,4.7-2c1.3,0,2.5,0.5,3.5,1.3c1,0.9,1.4,2.1,1.2,3.7c-3.4,11.2-7.7,21.5-13.1,30.8
			c-5.4,9.3-11.3,17.3-17.7,23.9c-6.4,6.6-13.1,11.8-20,15.5c-7,3.7-13.7,5.6-20.2,5.6c-6.5,0-11.9-1.8-16.3-5.4
			c-4.4-3.6-6.6-9.1-6.6-16.5c0-5.8,1.5-13,4.5-21.4c3-8.4,6.7-17.5,11.1-27.3c4.4-9.8,9-19.9,13.8-30.3c4.8-10.4,9.1-20.6,13-30.5
			c3.8-9.9,6.6-19.1,8.4-27.8C1606.9,70.9,1606.9,63.6,1605.2,57.5z"/>
		<path class="st1" d="M1670.1,57.5c1.3-2.7,3.7-4.9,7.1-6.6s7.3-2.5,11.8-2.5c5.4,0,10.3,1.7,14.6,5c4.4,3.4,6.6,9.3,6.6,17.8
			c0,4.3-1.1,9.9-3.2,16.8c-2.1,7-4.8,14.5-7.9,22.7c-3.1,8.2-6.6,16.6-10.3,25.2c-3.7,8.6-7.1,16.7-10.3,24.2
			c-3.1,7.5-5.8,14-7.9,19.5c-2.1,5.5-3.2,9.1-3.2,10.9c0,4.9,2.5,7.4,7.4,7.4c3.8,0,7.5-2,10.9-6.1c3.5-4,6.6-8.4,9.3-13.1
			c3.1-5.6,6.1-12,8.8-19.2c1.3-1.3,2.9-2,4.7-2c1.3,0,2.5,0.5,3.5,1.3c1,0.9,1.4,2.1,1.2,3.7c-3.4,11.2-7.7,21.5-13.1,30.8
			c-5.4,9.3-11.3,17.3-17.7,23.9c-6.4,6.6-13.1,11.8-20,15.5c-7,3.7-13.7,5.6-20.2,5.6c-6.5,0-11.9-1.8-16.3-5.4
			c-4.4-3.6-6.6-9.1-6.6-16.5c0-5.8,1.5-13,4.5-21.4c3-8.4,6.7-17.5,11.1-27.3c4.4-9.8,9-19.9,13.8-30.3c4.8-10.4,9.1-20.6,13-30.5
			c3.8-9.9,6.6-19.1,8.4-27.8C1671.9,70.9,1671.9,63.6,1670.1,57.5z"/>
		<path class="st1" d="M1696.3,194.5c0-10.8,2.1-21.5,6.4-32.3s10.2-20.5,17.8-29.1c7.6-8.6,16.7-15.6,27.3-20.9
			c10.5-5.3,22.1-7.9,34.7-7.9c10.5,0,18.3,2.4,23.2,7.2c4.9,4.8,7.4,10.8,7.4,18c0,5.6-1.5,11.6-4.4,17.8
			c-2.9,6.3-7.2,12.1-13,17.3c-5.7,5.3-12.8,9.8-21.2,13.5c-8.4,3.7-18,5.9-28.8,6.6c2.2,4.3,5.2,7.6,8.9,9.9
			c3.7,2.4,7.8,3.5,12.3,3.5c10.1,0,20.1-2.8,30.1-8.4c10-5.6,18.2-15.6,24.7-30c1.3-1.3,3-2,5-2c1.3,0,2.6,0.5,3.7,1.3
			c1.1,0.9,1.6,2.1,1.3,3.7c-3.4,10.1-8,19.7-13.8,28.8c-5.8,9.1-12.5,17.1-20,24.1c-7.5,7-15.9,12.5-25.1,16.5
			c-9.2,4-19,6.2-29.3,6.4c-8.3,0-15.4-1.1-21.4-3.4c-5.9-2.2-10.9-5.4-14.8-9.4c-3.9-4-6.8-8.8-8.6-14.1
			C1697.2,206.3,1696.3,200.5,1696.3,194.5z M1742.8,172.9c7,0,13.3-1.7,19.2-5c5.8-3.4,10.9-7.4,15.3-12.1c4.4-4.7,7.8-9.7,10.3-15
			c2.5-5.3,3.7-9.8,3.7-13.6c0-2.5-0.7-4.4-2-5.9c-1.3-1.5-3.6-2.2-6.7-2.2c-4.7,0-9.4,1.6-14.1,4.9c-4.7,3.3-9,7.3-12.8,12.1
			c-3.8,4.8-7,10.2-9.4,16c-2.5,5.8-3.7,11.3-3.7,16.5C1742.4,170.6,1742.6,172,1742.8,172.9z"/>
	</g>
	<g class="st0">
		<path class="st2" d="M225.6,90.5c0.8,1.1,1.7,2,2.8,2.8c1.1,0.5,2.2,1.1,3.6,1.8c1.3,0.7,3,1,5.2,1c7.7,0,13.5-2.6,17.5-7.9
			c4-5.3,6-11,6-17.1c0-7.7-2-13.3-6-16.9c-4-3.6-9-5.4-15.1-5.4c-4.5,0-9.1,1.3-13.7,3.8c-4.6,2.5-8.8,6.1-12.5,10.7
			c-3.7,4.6-6.7,10.3-8.9,16.9c-2.3,6.6-3.4,14-3.4,22.2c0,9.8,1.1,19,3.2,27.6c2.1,8.6,4.4,17.3,6.9,26.2c2.5,8.9,4.8,18.2,6.9,28
			c2.1,9.8,3.2,20.8,3.2,33c0,10.1-2.1,20.2-6.4,30.4c-4.2,10.2-10.3,19.3-18.1,27.4c-7.8,8.1-17.3,14.6-28.6,19.7
			c-11.3,5-24,7.5-38.3,7.5c-17.2,0-32-2.7-44.5-8.1c-12.4-5.4-22.8-12.5-31-21.2c-8.2-8.7-14.2-18.7-18.1-30
			c-3.8-11.2-5.8-22.7-5.8-34.3c0-11.1,2-21.5,6-31.2c4-9.7,9.5-18.1,16.5-25.4c7-7.3,15.2-13,24.6-17.3c9.4-4.2,19.4-6.4,30-6.4
			c6.4,0,12.2,1,17.7,3c5.4,2,10,4.7,13.7,8.1c3.7,3.4,6.6,7.3,8.7,11.5c2.1,4.2,3.2,8.7,3.2,13.5c0,5.3-1.1,9.5-3.2,12.5
			c-2.1,3-4.1,5.2-6,6.6c-1.9-1.1-4-1.6-6.4-1.6c-4,0-7.7,1.7-11.1,5c-3.4,3.3-5.2,7.6-5.2,12.9c0,8.5,2.7,14.9,8.1,19.3
			c5.4,4.4,11.6,6.6,18.5,6.6c3.7,0,7.5-0.7,11.3-2.2c3.8-1.5,7.2-3.6,10.1-6.4c2.9-2.8,5.3-6.4,7.1-10.9c1.8-4.5,2.8-9.7,2.8-15.5
			c0-6.9-0.6-13.7-1.8-20.5c-1.2-6.8-2.5-13.8-3.8-21c-1.3-7.3-2.6-15-3.8-23c-1.2-8.1-1.8-16.6-1.8-25.6c0-11.6,2.3-22.2,6.9-31.6
			c4.6-9.4,10.6-17.3,17.9-23.8c7.3-6.5,15.4-11.5,24.4-15.1c9-3.6,17.9-5.4,26.6-5.4c7.1,0,14,1.2,20.6,3.6
			c6.6,2.4,12.4,5.9,17.3,10.5c4.9,4.6,8.9,10.4,11.9,17.3c3,6.9,4.6,14.8,4.6,23.8c0,9.8-1.6,18.3-4.8,25.4
			c-3.2,7.1-7.1,13.1-11.9,17.9s-10,8.3-15.7,10.5c-5.7,2.3-11.2,3.4-16.5,3.4c-4.5,0-8.6-0.9-12.3-2.6c-3.7-1.7-6.8-3.9-9.3-6.6
			c-2.5-2.6-4.5-5.7-6-9.1c-1.5-3.4-2.2-6.9-2.2-10.3c0-2.9,0.6-5.9,1.8-8.9C220.7,96.4,222.7,93.4,225.6,90.5z"/>
	</g>
	<g class="st0">
		<path class="st2" d="M335.2,116.4c5.4,0,10,0.9,14,2.7c3.9,1.8,7.2,4,9.8,6.7c2.6,2.7,4.4,5.7,5.6,8.9c1.1,3.3,1.7,6.5,1.7,9.6
			c0,3.8-0.8,7.9-2.5,12.3s-4.1,8.4-7.2,12.1c-3.1,3.7-6.9,6.7-11.3,9.1c-4.4,2.4-9.4,3.5-15,3.5c-5.2,0-9.5-1.2-13-3.5
			c-3.5-2.4-5.2-6.1-5.2-11.3c0-2,0.3-3.9,0.8-5.6c0.6-1.7,1.2-3.1,1.9-4.2c0.7-1.6,1.5-2.9,2.4-4c0.4,0.2,1,0.5,1.7,0.7
			c1.3,0.5,2.8,0.7,4.4,0.7c5.2,0,9.6-1.7,13.5-5c3.8-3.4,5.7-7,5.7-10.8c0-3.4-1-5.4-2.9-6.1c-1.9-0.7-3.3-1-4.2-1
			c-4.7,0-9.4,1.6-14.1,4.9c-4.7,3.3-9,7.3-12.8,12.1c-3.8,4.8-7,10.2-9.4,16c-2.5,5.8-3.7,11.3-3.7,16.5c0,9.4,2.4,16.7,7.2,21.9
			c4.8,5.2,10.6,7.7,17.3,7.7c10.1,0,20.1-2.8,30.1-8.4c10-5.6,18.2-15.6,24.7-30c1.3-1.3,3-2,5-2c1.3,0,2.6,0.5,3.7,1.3
			c1.1,0.9,1.6,2.1,1.3,3.7c-3.4,10.1-8,19.7-13.8,28.8c-5.8,9.1-12.5,17.1-20,24.1c-7.5,7-15.9,12.5-25.1,16.5
			c-9.2,4-19,6.2-29.3,6.4c-8.3,0-15.4-1.1-21.4-3.4c-5.9-2.2-10.9-5.4-14.8-9.4c-3.9-4-6.8-8.8-8.6-14.1
			c-1.8-5.4-2.7-11.1-2.7-17.2c0-10.8,2.1-21.5,6.4-32.3s10.2-20.5,17.8-29.1c7.6-8.6,16.7-15.6,27.3-20.9
			C311,119.1,322.6,116.4,335.2,116.4z"/>
		<path class="st2" d="M366.5,210.3c0-13.2,2.6-25.6,7.9-37c5.3-11.4,11.9-21.4,19.9-29.8c8-8.4,16.5-15,25.7-19.9
			c9.2-4.8,17.7-7.2,25.6-7.2c9.6,0,16.5,2.8,20.5,8.4c4,5.6,6.1,12.7,6.1,21.2c0,6.1-1,12.7-2.9,19.9c-1.9,7.2-4.4,14.5-7.6,21.9
			c0.4,1.8,1.2,3.4,2.4,4.7c1.1,1.3,3.1,2,6.1,2c2.5,0,4.5-0.7,6.2-2.2c1.7-1.5,3.2-3.2,4.5-5.4c1.3-2.1,2.5-4.5,3.5-7.2
			c1-2.7,2-5.3,2.9-7.7c1.3-1.3,2.9-2,4.7-2c1.3,0,2.5,0.5,3.5,1.3c1,0.9,1.4,2.1,1.2,3.7c-0.7,4.5-2.1,9-4.4,13.6
			c-2.2,4.6-5.2,8.8-8.8,12.6c-3.6,3.8-7.6,6.9-12.1,9.3c-4.5,2.4-9.3,3.5-14.5,3.5c-2.9,0-5.8-0.6-8.8-1.7
			c-7.2,10.8-15.3,19.9-24.2,27.3c-9,7.4-17.8,11.1-26.6,11.1c-5.4,0-10-1.1-14-3.2c-3.9-2.1-7.2-5-9.8-8.8c-2.6-3.7-4.4-8-5.6-12.8
			C367,221.1,366.5,215.9,366.5,210.3z M404.8,195.5c0,4.5,0.8,8.1,2.5,10.8c1.7,2.7,4.4,4,8.2,4c2.9,0,6-1.1,9.3-3.2
			c3.2-2.1,6.4-5,9.6-8.6c-1.3-3.1-2-6.6-2-10.4c0-6.7,2-12.7,6.1-18c4-5.3,9.6-7.9,16.8-7.9c0.7-2.5,1.2-4.8,1.7-7.1
			c0.4-2.2,0.7-4.4,0.7-6.4c0-3.4-0.8-6.1-2.4-8.2c-1.6-2.1-4-3.2-7.4-3.2c-4.9,0-10,2-15.1,5.9c-5.2,3.9-9.8,8.8-14,14.6
			c-4.2,5.8-7.5,12.1-10.1,18.8C406.1,183.4,404.8,189.7,404.8,195.5z"/>
		<path class="st2" d="M517.6,97.9c1.3-5.6,2.2-10.8,2.5-15.5c0.3-4.7-0.1-9-1.2-12.8c1.3-2.7,3.7-4.9,7.1-6.6s7.3-2.5,11.8-2.5
			c5.4,0,10.3,1.7,14.6,5c4.4,3.4,6.6,9.3,6.6,17.8c0,1.8-0.2,3.9-0.7,6.4c-0.5,2.5-1,5.2-1.7,8.1h14.5c0,1.8-0.1,3.6-0.3,5.6
			c-0.2,1.9-0.7,3.6-1.5,5.2c-0.8,1.6-1.9,2.9-3.4,3.9c-1.5,1-3.4,1.5-5.9,1.5h-8.7c-2.9,8.5-6.4,17.6-10.4,27.1
			c-4,9.5-7.9,18.5-11.6,26.9c-3.7,8.4-6.8,15.8-9.3,22.2c-2.5,6.4-3.7,10.6-3.7,12.6c0,4.9,2.5,7.4,7.4,7.4c3.8,0,7.5-2,10.9-6.1
			c3.5-4,6.6-8.4,9.3-13.1c3.1-5.6,6.1-12,8.8-19.2c1.3-1.3,2.9-2,4.7-2c1.3,0,2.5,0.5,3.5,1.3c1,0.9,1.4,2.1,1.2,3.7
			c-3.4,11.2-7.7,21.5-13.1,30.8c-5.4,9.3-11.3,17.3-17.7,23.9c-6.4,6.6-13.1,11.8-20,15.5c-7,3.7-13.7,5.6-20.2,5.6
			c-6.5,0-11.9-1.8-16.3-5.4c-4.4-3.6-6.6-9.1-6.6-16.5c0-6.1,1.6-13.6,4.9-22.5c3.3-9,7.2-18.6,11.9-28.8
			c4.7-10.2,9.6-20.8,14.6-31.8c5-11,9.4-21.5,13-31.6H498c-0.2-3.8,0.8-7.5,3-10.9c2.2-3.5,4.6-5.2,7.1-5.2H517.6z"/>
		<path class="st2" d="M582.5,97.9c1.3-5.6,2.2-10.8,2.5-15.5c0.3-4.7-0.1-9-1.2-12.8c1.3-2.7,3.7-4.9,7.1-6.6s7.3-2.5,11.8-2.5
			c5.4,0,10.3,1.7,14.6,5c4.4,3.4,6.6,9.3,6.6,17.8c0,1.8-0.2,3.9-0.7,6.4c-0.5,2.5-1,5.2-1.7,8.1H636c0,1.8-0.1,3.6-0.3,5.6
			c-0.2,1.9-0.7,3.6-1.5,5.2c-0.8,1.6-1.9,2.9-3.4,3.9c-1.5,1-3.4,1.5-5.9,1.5h-8.7c-2.9,8.5-6.4,17.6-10.4,27.1
			c-4,9.5-7.9,18.5-11.6,26.9c-3.7,8.4-6.8,15.8-9.3,22.2c-2.5,6.4-3.7,10.6-3.7,12.6c0,4.9,2.5,7.4,7.4,7.4c3.8,0,7.5-2,10.9-6.1
			c3.5-4,6.6-8.4,9.3-13.1c3.1-5.6,6.1-12,8.8-19.2c1.3-1.3,2.9-2,4.7-2c1.3,0,2.5,0.5,3.5,1.3c1,0.9,1.4,2.1,1.2,3.7
			c-3.4,11.2-7.7,21.5-13.1,30.8c-5.4,9.3-11.3,17.3-17.7,23.9c-6.4,6.6-13.1,11.8-20,15.5c-7,3.7-13.7,5.6-20.2,5.6
			c-6.5,0-11.9-1.8-16.3-5.4c-4.4-3.6-6.6-9.1-6.6-16.5c0-6.1,1.6-13.6,4.9-22.5c3.3-9,7.2-18.6,11.9-28.8
			c4.7-10.2,9.6-20.8,14.6-31.8c5-11,9.4-21.5,13-31.6H563c-0.2-3.8,0.8-7.5,3-10.9c2.2-3.5,4.6-5.2,7.1-5.2H582.5z"/>
	</g>
	<g class="st0">
		<path class="st2" d="M748.7,250.7c-10.5,0-19.7-1.3-27.4-3.9c-7.7-2.6-14.2-6.2-19.4-10.9c-5.2-4.7-9-10.3-11.4-16.7
			c-2.5-6.4-3.7-13.3-3.7-20.7c0-9.9,1.7-18.4,5.2-25.6c3.5-7.2,8.1-13.6,14-19.2c5.8-5.6,12.5-10.4,19.9-14.5s15.1-7.7,23.2-11.1
			c2.7-15.9,6.6-29.2,11.8-39.9c5.2-10.7,10.8-19.2,17-25.7c6.2-6.5,12.5-11.2,18.8-14c6.4-2.8,12.2-4.2,17.3-4.2
			c5.2,0,9.9,1,14.3,2.9c4.4,1.9,8.2,4.4,11.4,7.4c3.2,3,5.8,6.6,7.7,10.6c1.9,4,2.9,8.2,2.9,12.5c0,10.1-2.2,18.7-6.7,25.9
			c-4.5,7.2-10.2,13.5-17.2,18.8c-7,5.4-14.7,10-23.2,14c-8.5,3.9-16.8,7.6-24.9,10.9c0,6.7,0.4,13.4,1.3,19.9
			c0.9,6.5,2.2,12.7,4,18.5c5.8-3.6,10.8-7.7,15-12.3c4.1-4.6,6.2-9,6.2-13.3c9.4,0,16.3,2.8,20.7,8.2c4.4,5.5,6.6,12.2,6.6,20
			c0,6.7-1.7,13.7-5,21c-3.4,7.3-8.4,14-15.1,20c3.1,2.2,6.6,4,10.4,5.2c3.8,1.2,7.8,1.9,12.1,1.9c0.7,2.7,0.6,6-0.3,9.9
			c-0.9,3.9-2.6,7.7-5.2,11.4c-2.6,3.7-6,6.8-10.3,9.4c-4.3,2.6-9.4,3.9-15.5,3.9c-7.9,0-14.9-2-21.2-5.9
			c-6.3-3.9-11.8-9.1-16.5-15.6C760.6,250.3,755,250.7,748.7,250.7z M745.7,163.9c-3.1,2.5-5.6,5.1-7.4,7.9
			c-1.8,2.8-2.7,5.9-2.7,9.3c0,7.9,3.8,12.7,11.4,14.5c-0.5-3.8-0.8-7.6-1-11.4c-0.2-3.8-0.3-7.7-0.3-11.8V163.9z M780.7,115.7
			c5.8-2.5,11.3-4.9,16.3-7.4c5-2.5,9.5-5.2,13.3-8.2c3.8-3,6.8-6.3,8.9-9.9c2.1-3.6,3.2-7.7,3.2-12.5c0-8.3-3.4-12.5-10.1-12.5
			c-7.9,0-14.5,4.7-20,14.1C786.8,88.8,782.9,100.9,780.7,115.7z"/>
	</g>
	<g class="st0">
		<path class="st2" d="M886,217c0-7.2,1.2-14.2,3.7-21.2c2.5-7,5.9-13.1,10.3-18.5c4.4-5.4,9.6-9.8,15.8-13.1c6.2-3.4,13.1-5,20.7-5
			c6.5,0,11.9,1.6,16.3,4.7c4.4,3.1,6.6,7.6,6.6,13.5c-2.7,0-4.9,1.4-6.6,4.2c-1.7,2.8-2.5,6.1-2.5,9.9c0,4.5,1.5,8.8,4.5,12.8
			c3,4,8.1,6.1,15.3,6.1c5.6,0,10.9-1.6,16-4.7c5-3.1,9.9-7.3,14.5-12.6c4.6-5.3,9-11.5,13.1-18.7c4.1-7.2,8.2-14.8,12.3-22.9
			c-3.1-4.3-4.7-8.9-4.7-13.8c0-6.1,2.2-11.3,6.6-15.6c4.4-4.4,9.6-7.3,15.6-8.9c3.4-7.9,6.7-15.4,10.1-22.5
			c3.4-7.2,6.8-13.9,10.4-20.2c-7.4-2.5-15-5-22.9-7.6c-7.9-2.6-15.9-3.9-24.2-3.9c-4.7,0-8.9,0.8-12.5,2.4
			c-3.6,1.6-6.6,3.6-8.9,6.1c-2.4,2.5-4.2,5.3-5.4,8.4c-1.2,3.1-1.9,6.3-1.9,9.4c0,6.3,1.5,11.2,4.5,14.6c3,3.5,5.9,5.6,8.6,6.2
			c0,3.1-1.1,6.6-3.2,10.4c-2.1,3.8-5,7.4-8.8,10.8c-3.7,3.4-8,6.2-13,8.6c-4.9,2.4-10.3,3.5-16.2,3.5c-5.6,0-10.8-1.1-15.5-3.2
			c-4.7-2.1-8.7-5-12.1-8.6c-3.4-3.6-5.9-7.9-7.7-12.8c-1.8-4.9-2.7-10.2-2.7-15.8c0-6.7,1.5-13.6,4.5-20.5c3-7,7.6-13.3,13.8-19
			c6.2-5.7,13.9-10.4,23.2-14c9.3-3.6,20.1-5.4,32.5-5.4c6.7,0,13.3,0.7,19.9,2c6.5,1.3,12.8,2.9,19,4.7c6.2,1.8,12.3,3.8,18.3,5.9
			c6.1,2.1,12,4,17.8,5.6c4-5.8,8.1-10.4,12.1-13.6c4-3.2,8.3-4.9,12.8-4.9c5.2,0,9.6,1.7,13.3,5.2c3.7,3.5,5.6,7.6,5.6,12.3
			c0,5.4-2.1,9.9-6.2,13.6c-4.2,3.7-9.9,5.6-17.3,5.6c-4,0-7.9-0.4-11.4-1.3c-2,5.6-4,11.9-5.9,19c-1.9,7.1-4,14.5-6.2,22.4
			c4.5,2.7,8.2,6.5,11.1,11.4c14.8-10.1,27.3-20.4,37.4-30.8s19-19.9,26.8-28.4c7.7-8.5,15-15.5,21.7-21c6.7-5.5,14.4-8.2,22.9-8.2
			c2.7,0,5.6,0.5,8.8,1.3c3.1,0.9,6.1,2.4,8.7,4.5c2.7,2.1,4.9,5,6.6,8.7s2.5,8.4,2.5,14c0,4.7-1,8.9-2.9,12.5
			c-1.9,3.6-4.3,6.7-7.2,9.3c-2.9,2.6-6.1,4.5-9.6,5.9c-3.5,1.3-6.8,2-9.9,2c-2,0-3.6-0.3-4.9-0.8c-1.2-0.6-2.4-1.1-3.5-1.5
			c0-2.5-0.3-4.6-1-6.4c-0.7-1.8-1.7-3.3-3.2-4.5c-1.5-1.2-3.8-1.9-6.9-1.9c-2.9,0-7.1,2.2-12.6,6.6c-5.5,4.4-11.7,9.8-18.7,16.2
			c-7,6.4-14.5,13-22.5,19.9c-8.1,6.8-16.4,12.8-24.9,18c2.7,7.4,4.9,15.5,6.6,24.4c1.7,8.9,3.4,17.8,5.2,26.9
			c1.8,9.1,4,17.8,6.6,26.2c2.6,8.4,5.9,15.9,10.1,22.5c4.1,6.6,9.4,11.9,15.6,15.8c6.3,3.9,14.1,5.9,23.6,5.9
			c5.2,0,10-1.4,14.5-4.2c4.5-2.8,7.3-6,8.4-9.6c5.2,2.7,8.7,6.2,10.6,10.6c1.9,4.4,2.9,9.8,2.9,16.3c0,5.4-1.3,10.8-3.9,16.3
			c-2.6,5.5-6.3,10.4-11.1,14.8c-4.8,4.4-10.8,8-18,10.8c-7.2,2.8-15.5,4.2-24.9,4.2c-11.4,0-20.8-2-28.1-5.9
			c-7.3-3.9-13.1-9.2-17.3-15.8c-4.3-6.6-7.2-14.2-8.9-22.9c-1.7-8.6-2.7-17.6-3-26.9c-0.3-9.3-0.3-18.7,0.2-28.3
			c0.4-9.5,0.7-18.5,0.7-26.9s-0.5-15.9-1.5-22.5c-1-6.6-3.1-11.7-6.2-15.3c-4.7,2.5-9.5,4-14.5,4.7c-4.7,13.9-10.2,27.5-16.5,40.7
			c-6.3,13.2-13.7,25.1-22.4,35.5c-8.6,10.4-18.7,18.8-30.1,25.2s-24.8,9.6-40,9.6c-9.6,0-18.2-1.7-25.6-5
			c-7.4-3.4-13.6-7.8-18.5-13.3c-4.9-5.5-8.6-11.7-11.1-18.7C887.3,231.3,886,224.2,886,217z M1098,51.8c-4,0-7.9,3.1-11.4,9.4
			c1.8,0.2,3.5,0.4,5.2,0.5c1.7,0.1,3.4,0.2,5.2,0.2c2,0,3.9-0.4,5.7-1.3c1.8-0.9,2.7-2.2,2.7-4C1105.4,53.4,1103,51.8,1098,51.8z"
			/>
		<path class="st2" d="M1136.7,206.6c0-10.8,2.1-21.5,6.4-32.3s10.2-20.5,17.8-29.1c7.6-8.6,16.7-15.6,27.3-20.9
			c10.5-5.3,22.1-7.9,34.7-7.9c10.5,0,18.3,2.4,23.2,7.2c4.9,4.8,7.4,10.8,7.4,18c0,5.6-1.5,11.6-4.4,17.8
			c-2.9,6.3-7.2,12.1-13,17.3c-5.7,5.3-12.8,9.8-21.2,13.5c-8.4,3.7-18,5.9-28.8,6.6c2.2,4.3,5.2,7.6,8.9,9.9
			c3.7,2.4,7.8,3.5,12.3,3.5c10.1,0,20.1-2.8,30.1-8.4c10-5.6,18.2-15.6,24.7-30c1.3-1.3,3-2,5-2c1.3,0,2.6,0.5,3.7,1.3
			c1.1,0.9,1.6,2.1,1.3,3.7c-3.4,10.1-8,19.7-13.8,28.8c-5.8,9.1-12.5,17.1-20,24.1c-7.5,7-15.9,12.5-25.1,16.5
			c-9.2,4-19,6.2-29.3,6.4c-8.3,0-15.4-1.1-21.4-3.4c-5.9-2.2-10.9-5.4-14.8-9.4c-3.9-4-6.8-8.8-8.6-14.1
			C1137.6,218.4,1136.7,212.7,1136.7,206.6z M1183.2,185.1c7,0,13.3-1.7,19.2-5c5.8-3.4,10.9-7.4,15.3-12.1c4.4-4.7,7.8-9.7,10.3-15
			c2.5-5.3,3.7-9.8,3.7-13.6c0-2.5-0.7-4.4-2-5.9c-1.3-1.5-3.6-2.2-6.7-2.2c-4.7,0-9.4,1.6-14.1,4.9c-4.7,3.3-9,7.3-12.8,12.1
			c-3.8,4.8-7,10.2-9.4,16c-2.5,5.8-3.7,11.3-3.7,16.5C1182.8,182.7,1182.9,184.2,1183.2,185.1z"/>
		<path class="st2" d="M1304.6,255.1c-10.3,0-19.2-1.5-26.8-4.5c-7.5-3-13.7-6.9-18.5-11.6c-4.8-4.7-8.4-10-10.6-16
			c-2.2-5.9-3.4-11.8-3.4-17.7c0-7.6,1.1-14.2,3.4-19.9c2.2-5.6,5.2-10.3,8.9-14c3.7-3.7,7.8-6.5,12.3-8.4c4.5-1.9,8.9-2.9,13.1-2.9
			c7,0,12.9,2.3,17.8,6.9c4.9,4.6,6.8,11.6,5.7,21c-2.9,0-5.6,1.1-7.9,3.2c-2.4,2.1-3.5,4.8-3.5,7.9c0,2.9,1.1,5.5,3.4,7.7
			c2.2,2.2,6.1,3.4,11.4,3.4c4.5,0,8.5-1.5,12.1-4.4c3.6-2.9,5.4-7.3,5.4-13.1c0-4.5-1.1-8.6-3.2-12.5c-2.1-3.8-4.5-7.6-7.2-11.3
			c-2.7-3.7-5.1-7.5-7.2-11.4c-2.1-3.9-3.2-8.4-3.2-13.3c0-4.9,1.1-9.5,3.2-13.8c2.1-4.3,5-7.9,8.6-10.9c3.6-3,7.7-5.4,12.5-7.2
			c4.7-1.8,9.6-2.7,14.8-2.7c4.7,0,9.2,0.6,13.5,1.7c4.3,1.1,8,2.8,11.3,5c3.2,2.2,5.8,5,7.7,8.2c1.9,3.3,2.9,7,2.9,11.3
			c0,5.8-1.6,11-4.9,15.5c-3.3,4.5-8.2,6.7-15,6.7c-6.3,0-11.1-1.7-14.3-5c-3.3-3.4-4.9-7.6-4.9-12.8c2,0,4.1-0.4,6.4-1.3
			c2.2-0.9,3.4-2.6,3.4-5c0-1.8-0.9-3.2-2.7-4.2c-1.8-1-3.8-1.5-6.1-1.5c-3.1,0-6,1.2-8.6,3.7c-2.6,2.5-3.9,6.2-3.9,11.1
			c0,4.5,2,8.7,5.9,12.8c3.9,4,8.2,8.3,13,12.8c4.7,4.5,9,9.5,13,15.1c3.9,5.6,5.9,12.2,5.9,19.9c0,1.1,0,2.2,0,3.4
			c0,1.1-0.1,2.2-0.3,3.4c3.8,0,7.3-1.5,10.6-4.5c3.2-3,6.2-6.6,8.8-10.8c2.6-4.1,4.8-8.4,6.6-12.8c1.8-4.4,3.1-7.8,4-10.3
			c1.3-1.3,2.9-2,4.7-2c1.3,0,2.5,0.5,3.5,1.3c1,0.9,1.4,2.1,1.2,3.7C1391.8,228.4,1357.6,255.1,1304.6,255.1z"/>
		<path class="st2" d="M1427.8,97.9c1.3-5.6,2.2-10.8,2.5-15.5c0.3-4.7-0.1-9-1.2-12.8c1.3-2.7,3.7-4.9,7.1-6.6s7.3-2.5,11.8-2.5
			c5.4,0,10.3,1.7,14.6,5c4.4,3.4,6.6,9.3,6.6,17.8c0,1.8-0.2,3.9-0.7,6.4c-0.5,2.5-1,5.2-1.7,8.1h14.5c0,1.8-0.1,3.6-0.3,5.6
			c-0.2,1.9-0.7,3.6-1.5,5.2c-0.8,1.6-1.9,2.9-3.4,3.9c-1.5,1-3.4,1.5-5.9,1.5h-8.7c-2.9,8.5-6.4,17.6-10.4,27.1
			c-4,9.5-7.9,18.5-11.6,26.9c-3.7,8.4-6.8,15.8-9.3,22.2c-2.5,6.4-3.7,10.6-3.7,12.6c0,4.9,2.5,7.4,7.4,7.4c3.8,0,7.5-2,10.9-6.1
			c3.5-4,6.6-8.4,9.3-13.1c3.1-5.6,6.1-12,8.8-19.2c1.3-1.3,2.9-2,4.7-2c1.3,0,2.5,0.5,3.5,1.3c1,0.9,1.4,2.1,1.2,3.7
			c-3.4,11.2-7.7,21.5-13.1,30.8c-5.4,9.3-11.3,17.3-17.7,23.9c-6.4,6.6-13.1,11.8-20,15.5c-7,3.7-13.7,5.6-20.2,5.6
			c-6.5,0-11.9-1.8-16.3-5.4c-4.4-3.6-6.6-9.1-6.6-16.5c0-6.1,1.6-13.6,4.9-22.5c3.3-9,7.2-18.6,11.9-28.8
			c4.7-10.2,9.6-20.8,14.6-31.8c5-11,9.4-21.5,13-31.6h-14.5c-0.2-3.8,0.8-7.5,3-10.9c2.2-3.5,4.6-5.2,7.1-5.2H1427.8z"/>
		<path class="st2" d="M1455.4,206.6c0-10.8,2.1-21.5,6.4-32.3s10.2-20.5,17.8-29.1c7.6-8.6,16.7-15.6,27.3-20.9
			c10.5-5.3,22.1-7.9,34.7-7.9c10.5,0,18.3,2.4,23.2,7.2c4.9,4.8,7.4,10.8,7.4,18c0,5.6-1.5,11.6-4.4,17.8
			c-2.9,6.3-7.2,12.1-13,17.3c-5.7,5.3-12.8,9.8-21.2,13.5c-8.4,3.7-18,5.9-28.8,6.6c2.2,4.3,5.2,7.6,8.9,9.9
			c3.7,2.4,7.8,3.5,12.3,3.5c10.1,0,20.1-2.8,30.1-8.4c10-5.6,18.2-15.6,24.7-30c1.3-1.3,3-2,5-2c1.3,0,2.6,0.5,3.7,1.3
			c1.1,0.9,1.6,2.1,1.3,3.7c-3.4,10.1-8,19.7-13.8,28.8c-5.8,9.1-12.5,17.1-20,24.1c-7.5,7-15.9,12.5-25.1,16.5
			c-9.2,4-19,6.2-29.3,6.4c-8.3,0-15.4-1.1-21.4-3.4c-5.9-2.2-10.9-5.4-14.8-9.4c-3.9-4-6.8-8.8-8.6-14.1
			C1456.3,218.4,1455.4,212.7,1455.4,206.6z M1501.8,185.1c7,0,13.3-1.7,19.2-5c5.8-3.4,10.9-7.4,15.3-12.1c4.4-4.7,7.8-9.7,10.3-15
			c2.5-5.3,3.7-9.8,3.7-13.6c0-2.5-0.7-4.4-2-5.9c-1.3-1.5-3.6-2.2-6.7-2.2c-4.7,0-9.4,1.6-14.1,4.9c-4.7,3.3-9,7.3-12.8,12.1
			c-3.8,4.8-7,10.2-9.4,16c-2.5,5.8-3.7,11.3-3.7,16.5C1501.5,182.7,1501.6,184.2,1501.8,185.1z"/>
		<path class="st2" d="M1611.9,69.6c1.3-2.7,3.7-4.9,7.1-6.6s7.3-2.5,11.8-2.5c5.4,0,10.3,1.7,14.6,5c4.4,3.4,6.6,9.3,6.6,17.8
			c0,4.3-1.1,9.9-3.2,16.8c-2.1,7-4.8,14.5-7.9,22.7c-3.1,8.2-6.6,16.6-10.3,25.2c-3.7,8.6-7.1,16.7-10.3,24.2
			c-3.1,7.5-5.8,14-7.9,19.5c-2.1,5.5-3.2,9.1-3.2,10.9c0,4.9,2.5,7.4,7.4,7.4c3.8,0,7.5-2,10.9-6.1c3.5-4,6.6-8.4,9.3-13.1
			c3.1-5.6,6.1-12,8.8-19.2c1.3-1.3,2.9-2,4.7-2c1.3,0,2.5,0.5,3.5,1.3c1,0.9,1.4,2.1,1.2,3.7c-3.4,11.2-7.7,21.5-13.1,30.8
			c-5.4,9.3-11.3,17.3-17.7,23.9c-6.4,6.6-13.1,11.8-20,15.5c-7,3.7-13.7,5.6-20.2,5.6c-6.5,0-11.9-1.8-16.3-5.4
			c-4.4-3.6-6.6-9.1-6.6-16.5c0-5.8,1.5-13,4.5-21.4c3-8.4,6.7-17.5,11.1-27.3c4.4-9.8,9-19.9,13.8-30.3c4.8-10.4,9.1-20.6,13-30.5
			c3.8-9.9,6.6-19.1,8.4-27.8C1613.7,83,1613.7,75.7,1611.9,69.6z"/>
		<path class="st2" d="M1676.8,69.6c1.3-2.7,3.7-4.9,7.1-6.6s7.3-2.5,11.8-2.5c5.4,0,10.3,1.7,14.6,5c4.4,3.4,6.6,9.3,6.6,17.8
			c0,4.3-1.1,9.9-3.2,16.8c-2.1,7-4.8,14.5-7.9,22.7c-3.1,8.2-6.6,16.6-10.3,25.2c-3.7,8.6-7.1,16.7-10.3,24.2
			c-3.1,7.5-5.8,14-7.9,19.5c-2.1,5.5-3.2,9.1-3.2,10.9c0,4.9,2.5,7.4,7.4,7.4c3.8,0,7.5-2,10.9-6.1c3.5-4,6.6-8.4,9.3-13.1
			c3.1-5.6,6.1-12,8.8-19.2c1.3-1.3,2.9-2,4.7-2c1.3,0,2.5,0.5,3.5,1.3c1,0.9,1.4,2.1,1.2,3.7c-3.4,11.2-7.7,21.5-13.1,30.8
			c-5.4,9.3-11.3,17.3-17.7,23.9c-6.4,6.6-13.1,11.8-20,15.5c-7,3.7-13.7,5.6-20.2,5.6c-6.5,0-11.9-1.8-16.3-5.4
			c-4.4-3.6-6.6-9.1-6.6-16.5c0-5.8,1.5-13,4.5-21.4c3-8.4,6.7-17.5,11.1-27.3c4.4-9.8,9-19.9,13.8-30.3c4.8-10.4,9.1-20.6,13-30.5
			c3.8-9.9,6.6-19.1,8.4-27.8C1678.6,83,1678.6,75.7,1676.8,69.6z"/>
		<path class="st2" d="M1703.1,206.6c0-10.8,2.1-21.5,6.4-32.3s10.2-20.5,17.8-29.1c7.6-8.6,16.7-15.6,27.3-20.9
			c10.5-5.3,22.1-7.9,34.7-7.9c10.5,0,18.3,2.4,23.2,7.2c4.9,4.8,7.4,10.8,7.4,18c0,5.6-1.5,11.6-4.4,17.8
			c-2.9,6.3-7.2,12.1-13,17.3c-5.7,5.3-12.8,9.8-21.2,13.5c-8.4,3.7-18,5.9-28.8,6.6c2.2,4.3,5.2,7.6,8.9,9.9
			c3.7,2.4,7.8,3.5,12.3,3.5c10.1,0,20.1-2.8,30.1-8.4c10-5.6,18.2-15.6,24.7-30c1.3-1.3,3-2,5-2c1.3,0,2.6,0.5,3.7,1.3
			c1.1,0.9,1.6,2.1,1.3,3.7c-3.4,10.1-8,19.7-13.8,28.8c-5.8,9.1-12.5,17.1-20,24.1c-7.5,7-15.9,12.5-25.1,16.5
			c-9.2,4-19,6.2-29.3,6.4c-8.3,0-15.4-1.1-21.4-3.4c-5.9-2.2-10.9-5.4-14.8-9.4c-3.9-4-6.8-8.8-8.6-14.1
			C1704,218.4,1703.1,212.7,1703.1,206.6z M1749.5,185.1c7,0,13.3-1.7,19.2-5c5.8-3.4,10.9-7.4,15.3-12.1c4.4-4.7,7.8-9.7,10.3-15
			c2.5-5.3,3.7-9.8,3.7-13.6c0-2.5-0.7-4.4-2-5.9c-1.3-1.5-3.6-2.2-6.7-2.2c-4.7,0-9.4,1.6-14.1,4.9c-4.7,3.3-9,7.3-12.8,12.1
			c-3.8,4.8-7,10.2-9.4,16c-2.5,5.8-3.7,11.3-3.7,16.5C1749.2,182.7,1749.3,184.2,1749.5,185.1z"/>
	</g>
	<g class="st0">
		<path class="st3" d="M218.9,78.4c0.8,1.1,1.7,2,2.8,2.8c1.1,0.5,2.2,1.1,3.6,1.8c1.3,0.7,3,1,5.2,1c7.7,0,13.5-2.6,17.5-7.9
			c4-5.3,6-11,6-17.1c0-7.7-2-13.3-6-16.9c-4-3.6-9-5.4-15.1-5.4c-4.5,0-9.1,1.3-13.7,3.8c-4.6,2.5-8.8,6.1-12.5,10.7
			c-3.7,4.6-6.7,10.3-8.9,16.9c-2.3,6.6-3.4,14-3.4,22.2c0,9.8,1.1,19,3.2,27.6c2.1,8.6,4.4,17.3,6.9,26.2c2.5,8.9,4.8,18.2,6.9,28
			c2.1,9.8,3.2,20.8,3.2,33c0,10.1-2.1,20.2-6.4,30.4c-4.2,10.2-10.3,19.3-18.1,27.4c-7.8,8.1-17.3,14.6-28.6,19.7
			c-11.3,5-24,7.5-38.3,7.5c-17.2,0-32-2.7-44.5-8.1c-12.4-5.4-22.8-12.5-31-21.2c-8.2-8.7-14.2-18.7-18.1-30
			c-3.8-11.2-5.8-22.7-5.8-34.3c0-11.1,2-21.5,6-31.2c4-9.7,9.5-18.1,16.5-25.4c7-7.3,15.2-13,24.6-17.3c9.4-4.2,19.4-6.4,30-6.4
			c6.4,0,12.2,1,17.7,3c5.4,2,10,4.7,13.7,8.1c3.7,3.4,6.6,7.3,8.7,11.5c2.1,4.2,3.2,8.7,3.2,13.5c0,5.3-1.1,9.5-3.2,12.5
			c-2.1,3-4.1,5.2-6,6.6c-1.9-1.1-4-1.6-6.4-1.6c-4,0-7.7,1.7-11.1,5c-3.4,3.3-5.2,7.6-5.2,12.9c0,8.5,2.7,14.9,8.1,19.3
			c5.4,4.4,11.6,6.6,18.5,6.6c3.7,0,7.5-0.7,11.3-2.2c3.8-1.5,7.2-3.6,10.1-6.4c2.9-2.8,5.3-6.4,7.1-10.9c1.8-4.5,2.8-9.7,2.8-15.5
			c0-6.9-0.6-13.7-1.8-20.5c-1.2-6.8-2.5-13.8-3.8-21c-1.3-7.3-2.6-15-3.8-23c-1.2-8.1-1.8-16.6-1.8-25.6c0-11.6,2.3-22.2,6.9-31.6
			c4.6-9.4,10.6-17.3,17.9-23.8c7.3-6.5,15.4-11.5,24.4-15.1c9-3.6,17.9-5.4,26.6-5.4c7.1,0,14,1.2,20.6,3.6
			c6.6,2.4,12.4,5.9,17.3,10.5C278,31.2,282,37,285,43.9c3,6.9,4.6,14.8,4.6,23.8c0,9.8-1.6,18.3-4.8,25.4
			c-3.2,7.1-7.1,13.1-11.9,17.9s-10,8.3-15.7,10.5c-5.7,2.3-11.2,3.4-16.5,3.4c-4.5,0-8.6-0.9-12.3-2.6c-3.7-1.7-6.8-3.9-9.3-6.6
			c-2.5-2.6-4.5-5.7-6-9.1c-1.5-3.4-2.2-6.9-2.2-10.3c0-2.9,0.6-5.9,1.8-8.9C213.9,84.3,216,81.3,218.9,78.4z"/>
	</g>
	<g class="st0">
		<path class="st3" d="M328.4,104.3c5.4,0,10,0.9,14,2.7c3.9,1.8,7.2,4,9.8,6.7c2.6,2.7,4.4,5.7,5.6,8.9c1.1,3.3,1.7,6.5,1.7,9.6
			c0,3.8-0.8,7.9-2.5,12.3s-4.1,8.4-7.2,12.1c-3.1,3.7-6.9,6.7-11.3,9.1c-4.4,2.4-9.4,3.5-15,3.5c-5.2,0-9.5-1.2-13-3.5
			c-3.5-2.4-5.2-6.1-5.2-11.3c0-2,0.3-3.9,0.8-5.6c0.6-1.7,1.2-3.1,1.9-4.2c0.7-1.6,1.5-2.9,2.4-4c0.4,0.2,1,0.5,1.7,0.7
			c1.3,0.5,2.8,0.7,4.4,0.7c5.2,0,9.6-1.7,13.5-5c3.8-3.4,5.7-7,5.7-10.8c0-3.4-1-5.4-2.9-6.1c-1.9-0.7-3.3-1-4.2-1
			c-4.7,0-9.4,1.6-14.1,4.9c-4.7,3.3-9,7.3-12.8,12.1c-3.8,4.8-7,10.2-9.4,16c-2.5,5.8-3.7,11.3-3.7,16.5c0,9.4,2.4,16.7,7.2,21.9
			c4.8,5.2,10.6,7.7,17.3,7.7c10.1,0,20.1-2.8,30.1-8.4c10-5.6,18.2-15.6,24.7-30c1.3-1.3,3-2,5-2c1.3,0,2.6,0.5,3.7,1.3
			c1.1,0.9,1.6,2.1,1.3,3.7c-3.4,10.1-8,19.7-13.8,28.8c-5.8,9.1-12.5,17.1-20,24.1c-7.5,7-15.9,12.5-25.1,16.5
			c-9.2,4-19,6.2-29.3,6.4c-8.3,0-15.4-1.1-21.4-3.4c-5.9-2.2-10.9-5.4-14.8-9.4c-3.9-4-6.8-8.8-8.6-14.1
			c-1.8-5.4-2.7-11.1-2.7-17.2c0-10.8,2.1-21.5,6.4-32.3s10.2-20.5,17.8-29.1c7.6-8.6,16.7-15.6,27.3-20.9
			C304.3,106.9,315.9,104.3,328.4,104.3z"/>
		<path class="st3" d="M359.7,198.2c0-13.2,2.6-25.6,7.9-37c5.3-11.4,11.9-21.4,19.9-29.8c8-8.4,16.5-15,25.7-19.9
			c9.2-4.8,17.7-7.2,25.6-7.2c9.6,0,16.5,2.8,20.5,8.4c4,5.6,6.1,12.7,6.1,21.2c0,6.1-1,12.7-2.9,19.9c-1.9,7.2-4.4,14.5-7.6,21.9
			c0.4,1.8,1.2,3.4,2.4,4.7c1.1,1.3,3.1,2,6.1,2c2.5,0,4.5-0.7,6.2-2.2c1.7-1.5,3.2-3.2,4.5-5.4c1.3-2.1,2.5-4.5,3.5-7.2
			c1-2.7,2-5.3,2.9-7.7c1.3-1.3,2.9-2,4.7-2c1.3,0,2.5,0.5,3.5,1.3c1,0.9,1.4,2.1,1.2,3.7c-0.7,4.5-2.1,9-4.4,13.6
			c-2.2,4.6-5.2,8.8-8.8,12.6c-3.6,3.8-7.6,6.9-12.1,9.3c-4.5,2.4-9.3,3.5-14.5,3.5c-2.9,0-5.8-0.6-8.8-1.7
			c-7.2,10.8-15.3,19.9-24.2,27.3c-9,7.4-17.8,11.1-26.6,11.1c-5.4,0-10-1.1-14-3.2c-3.9-2.1-7.2-5-9.8-8.8c-2.6-3.7-4.4-8-5.6-12.8
			C360.3,209,359.7,203.8,359.7,198.2z M398.1,183.4c0,4.5,0.8,8.1,2.5,10.8c1.7,2.7,4.4,4,8.2,4c2.9,0,6-1.1,9.3-3.2
			c3.2-2.1,6.4-5,9.6-8.6c-1.3-3.1-2-6.6-2-10.4c0-6.7,2-12.7,6.1-18c4-5.3,9.6-7.9,16.8-7.9c0.7-2.5,1.2-4.8,1.7-7.1
			c0.4-2.2,0.7-4.4,0.7-6.4c0-3.4-0.8-6.1-2.4-8.2c-1.6-2.1-4-3.2-7.4-3.2c-4.9,0-10,2-15.1,5.9c-5.2,3.9-9.8,8.8-14,14.6
			c-4.2,5.8-7.5,12.1-10.1,18.8C399.4,171.3,398.1,177.5,398.1,183.4z"/>
		<path class="st3" d="M510.8,85.8c1.3-5.6,2.2-10.8,2.5-15.5c0.3-4.7-0.1-9-1.2-12.8c1.3-2.7,3.7-4.9,7.1-6.6s7.3-2.5,11.8-2.5
			c5.4,0,10.3,1.7,14.6,5c4.4,3.4,6.6,9.3,6.6,17.8c0,1.8-0.2,3.9-0.7,6.4c-0.5,2.5-1,5.2-1.7,8.1h14.5c0,1.8-0.1,3.6-0.3,5.6
			c-0.2,1.9-0.7,3.6-1.5,5.2c-0.8,1.6-1.9,2.9-3.4,3.9c-1.5,1-3.4,1.5-5.9,1.5h-8.7c-2.9,8.5-6.4,17.6-10.4,27.1
			c-4,9.5-7.9,18.5-11.6,26.9c-3.7,8.4-6.8,15.8-9.3,22.2c-2.5,6.4-3.7,10.6-3.7,12.6c0,4.9,2.5,7.4,7.4,7.4c3.8,0,7.5-2,10.9-6.1
			c3.5-4,6.6-8.4,9.3-13.1c3.1-5.6,6.1-12,8.8-19.2c1.3-1.3,2.9-2,4.7-2c1.3,0,2.5,0.5,3.5,1.3c1,0.9,1.4,2.1,1.2,3.7
			c-3.4,11.2-7.7,21.5-13.1,30.8c-5.4,9.3-11.3,17.3-17.7,23.9c-6.4,6.6-13.1,11.8-20,15.5c-7,3.7-13.7,5.6-20.2,5.6
			c-6.5,0-11.9-1.8-16.3-5.4c-4.4-3.6-6.6-9.1-6.6-16.5c0-6.1,1.6-13.6,4.9-22.5c3.3-9,7.2-18.6,11.9-28.8
			c4.7-10.2,9.6-20.8,14.6-31.8c5-11,9.4-21.5,13-31.6h-14.5c-0.2-3.8,0.8-7.5,3-10.9c2.2-3.5,4.6-5.2,7.1-5.2H510.8z"/>
		<path class="st3" d="M575.8,85.8c1.3-5.6,2.2-10.8,2.5-15.5c0.3-4.7-0.1-9-1.2-12.8c1.3-2.7,3.7-4.9,7.1-6.6s7.3-2.5,11.8-2.5
			c5.4,0,10.3,1.7,14.6,5c4.4,3.4,6.6,9.3,6.6,17.8c0,1.8-0.2,3.9-0.7,6.4c-0.5,2.5-1,5.2-1.7,8.1h14.5c0,1.8-0.1,3.6-0.3,5.6
			c-0.2,1.9-0.7,3.6-1.5,5.2c-0.8,1.6-1.9,2.9-3.4,3.9c-1.5,1-3.4,1.5-5.9,1.5h-8.7c-2.9,8.5-6.4,17.6-10.4,27.1
			c-4,9.5-7.9,18.5-11.6,26.9c-3.7,8.4-6.8,15.8-9.3,22.2c-2.5,6.4-3.7,10.6-3.7,12.6c0,4.9,2.5,7.4,7.4,7.4c3.8,0,7.5-2,10.9-6.1
			c3.5-4,6.6-8.4,9.3-13.1c3.1-5.6,6.1-12,8.8-19.2c1.3-1.3,2.9-2,4.7-2c1.3,0,2.5,0.5,3.5,1.3c1,0.9,1.4,2.1,1.2,3.7
			c-3.4,11.2-7.7,21.5-13.1,30.8c-5.4,9.3-11.3,17.3-17.7,23.9c-6.4,6.6-13.1,11.8-20,15.5c-7,3.7-13.7,5.6-20.2,5.6
			c-6.5,0-11.9-1.8-16.3-5.4c-4.4-3.6-6.6-9.1-6.6-16.5c0-6.1,1.6-13.6,4.9-22.5c3.3-9,7.2-18.6,11.9-28.8
			c4.7-10.2,9.6-20.8,14.6-31.8c5-11,9.4-21.5,13-31.6h-14.5c-0.2-3.8,0.8-7.5,3-10.9c2.2-3.5,4.6-5.2,7.1-5.2H575.8z"/>
	</g>
	<g class="st0">
		<path class="st3" d="M742,238.6c-10.5,0-19.7-1.3-27.4-3.9c-7.7-2.6-14.2-6.2-19.4-10.9c-5.2-4.7-9-10.3-11.4-16.7
			c-2.5-6.4-3.7-13.3-3.7-20.7c0-9.9,1.7-18.4,5.2-25.6c3.5-7.2,8.1-13.6,14-19.2c5.8-5.6,12.5-10.4,19.9-14.5s15.1-7.7,23.2-11.1
			c2.7-15.9,6.6-29.2,11.8-39.9c5.2-10.7,10.8-19.2,17-25.7c6.2-6.5,12.5-11.2,18.8-14c6.4-2.8,12.2-4.2,17.3-4.2
			c5.2,0,9.9,1,14.3,2.9c4.4,1.9,8.2,4.4,11.4,7.4c3.2,3,5.8,6.6,7.7,10.6c1.9,4,2.9,8.2,2.9,12.5c0,10.1-2.2,18.7-6.7,25.9
			c-4.5,7.2-10.2,13.5-17.2,18.8c-7,5.4-14.7,10-23.2,14c-8.5,3.9-16.8,7.6-24.9,10.9c0,6.7,0.4,13.4,1.3,19.9
			c0.9,6.5,2.2,12.7,4,18.5c5.8-3.6,10.8-7.7,15-12.3c4.1-4.6,6.2-9,6.2-13.3c9.4,0,16.3,2.8,20.7,8.2c4.4,5.5,6.6,12.2,6.6,20
			c0,6.7-1.7,13.7-5,21c-3.4,7.3-8.4,14-15.1,20c3.1,2.2,6.6,4,10.4,5.2c3.8,1.2,7.8,1.9,12.1,1.9c0.7,2.7,0.6,6-0.3,9.9
			c-0.9,3.9-2.6,7.7-5.2,11.4c-2.6,3.7-6,6.8-10.3,9.4c-4.3,2.6-9.4,3.9-15.5,3.9c-7.9,0-14.9-2-21.2-5.9
			c-6.3-3.9-11.8-9.1-16.5-15.6C753.9,238.2,748.3,238.6,742,238.6z M739,151.7c-3.1,2.5-5.6,5.1-7.4,7.9c-1.8,2.8-2.7,5.9-2.7,9.3
			c0,7.9,3.8,12.7,11.4,14.5c-0.5-3.8-0.8-7.6-1-11.4c-0.2-3.8-0.3-7.7-0.3-11.8V151.7z M774,103.6c5.8-2.5,11.3-4.9,16.3-7.4
			c5-2.5,9.5-5.2,13.3-8.2c3.8-3,6.8-6.3,8.9-9.9c2.1-3.6,3.2-7.7,3.2-12.5c0-8.3-3.4-12.5-10.1-12.5c-7.9,0-14.5,4.7-20,14.1
			C780.1,76.7,776.2,88.8,774,103.6z"/>
	</g>
	<g class="st0">
		<path class="st3" d="M879.3,204.9c0-7.2,1.2-14.2,3.7-21.2c2.5-7,5.9-13.1,10.3-18.5c4.4-5.4,9.6-9.8,15.8-13.1
			c6.2-3.4,13.1-5,20.7-5c6.5,0,11.9,1.6,16.3,4.7c4.4,3.1,6.6,7.6,6.6,13.5c-2.7,0-4.9,1.4-6.6,4.2c-1.7,2.8-2.5,6.1-2.5,9.9
			c0,4.5,1.5,8.8,4.5,12.8c3,4,8.1,6.1,15.3,6.1c5.6,0,10.9-1.6,16-4.7c5-3.1,9.9-7.3,14.5-12.6c4.6-5.3,9-11.5,13.1-18.7
			c4.1-7.2,8.2-14.8,12.3-22.9c-3.1-4.3-4.7-8.9-4.7-13.8c0-6.1,2.2-11.3,6.6-15.6c4.4-4.4,9.6-7.3,15.6-8.9
			c3.4-7.9,6.7-15.4,10.1-22.5c3.4-7.2,6.8-13.9,10.4-20.2c-7.4-2.5-15-5-22.9-7.6c-7.9-2.6-15.9-3.9-24.2-3.9
			c-4.7,0-8.9,0.8-12.5,2.4c-3.6,1.6-6.6,3.6-8.9,6.1c-2.4,2.5-4.2,5.3-5.4,8.4c-1.2,3.1-1.9,6.3-1.9,9.4c0,6.3,1.5,11.2,4.5,14.6
			c3,3.5,5.9,5.6,8.6,6.2c0,3.1-1.1,6.6-3.2,10.4c-2.1,3.8-5,7.4-8.7,10.8c-3.7,3.4-8,6.2-13,8.6c-4.9,2.4-10.3,3.5-16.2,3.5
			c-5.6,0-10.8-1.1-15.5-3.2c-4.7-2.1-8.8-5-12.1-8.6c-3.4-3.6-5.9-7.9-7.7-12.8c-1.8-4.9-2.7-10.2-2.7-15.8
			c0-6.7,1.5-13.6,4.5-20.5c3-7,7.6-13.3,13.8-19c6.2-5.7,13.9-10.4,23.2-14c9.3-3.6,20.1-5.4,32.5-5.4c6.7,0,13.3,0.7,19.9,2
			c6.5,1.3,12.8,2.9,19,4.7c6.2,1.8,12.3,3.8,18.3,5.9c6.1,2.1,12,4,17.8,5.6c4-5.8,8.1-10.4,12.1-13.6c4-3.2,8.3-4.9,12.8-4.9
			c5.2,0,9.6,1.7,13.3,5.2c3.7,3.5,5.6,7.6,5.6,12.3c0,5.4-2.1,9.9-6.2,13.6c-4.2,3.7-9.9,5.6-17.3,5.6c-4,0-7.9-0.4-11.4-1.3
			c-2,5.6-4,11.9-5.9,19c-1.9,7.1-4,14.5-6.2,22.4c4.5,2.7,8.2,6.5,11.1,11.4c14.8-10.1,27.3-20.4,37.4-30.8s19-19.9,26.8-28.4
			c7.7-8.5,15-15.5,21.7-21c6.7-5.5,14.4-8.2,22.9-8.2c2.7,0,5.6,0.5,8.8,1.3c3.1,0.9,6.1,2.4,8.7,4.5c2.7,2.1,4.9,5,6.6,8.7
			s2.5,8.4,2.5,14c0,4.7-1,8.9-2.9,12.5c-1.9,3.6-4.3,6.7-7.2,9.3c-2.9,2.6-6.1,4.5-9.6,5.9c-3.5,1.3-6.8,2-9.9,2
			c-2,0-3.6-0.3-4.9-0.8c-1.2-0.6-2.4-1.1-3.5-1.5c0-2.5-0.3-4.6-1-6.4c-0.7-1.8-1.7-3.3-3.2-4.5c-1.5-1.2-3.8-1.9-6.9-1.9
			c-2.9,0-7.1,2.2-12.6,6.6c-5.5,4.4-11.7,9.8-18.7,16.2c-7,6.4-14.5,13-22.5,19.9c-8.1,6.8-16.4,12.8-24.9,18
			c2.7,7.4,4.9,15.5,6.6,24.4c1.7,8.9,3.4,17.8,5.2,26.9c1.8,9.1,4,17.8,6.6,26.2c2.6,8.4,5.9,15.9,10.1,22.5
			c4.1,6.6,9.4,11.9,15.6,15.8c6.3,3.9,14.1,5.9,23.6,5.9c5.2,0,10-1.4,14.5-4.2c4.5-2.8,7.3-6,8.4-9.6c5.2,2.7,8.7,6.2,10.6,10.6
			c1.9,4.4,2.9,9.8,2.9,16.3c0,5.4-1.3,10.8-3.9,16.3c-2.6,5.5-6.3,10.4-11.1,14.8c-4.8,4.4-10.8,8-18,10.8
			c-7.2,2.8-15.5,4.2-24.9,4.2c-11.4,0-20.8-2-28.1-5.9c-7.3-3.9-13.1-9.2-17.3-15.8c-4.3-6.6-7.2-14.2-8.9-22.9
			c-1.7-8.6-2.7-17.6-3-26.9c-0.3-9.3-0.3-18.7,0.2-28.3c0.4-9.5,0.7-18.5,0.7-26.9s-0.5-15.9-1.5-22.5c-1-6.6-3.1-11.7-6.2-15.3
			c-4.7,2.5-9.5,4-14.5,4.7c-4.7,13.9-10.2,27.5-16.5,40.7c-6.3,13.2-13.7,25.1-22.4,35.5c-8.6,10.4-18.7,18.8-30.1,25.2
			c-11.4,6.4-24.8,9.6-40,9.6c-9.6,0-18.2-1.7-25.6-5c-7.4-3.4-13.6-7.8-18.5-13.3c-4.9-5.5-8.6-11.7-11.1-18.7
			C880.5,219.2,879.3,212.1,879.3,204.9z M1091.3,39.7c-4,0-7.9,3.1-11.4,9.4c1.8,0.2,3.5,0.4,5.2,0.5c1.7,0.1,3.4,0.2,5.2,0.2
			c2,0,3.9-0.4,5.7-1.3c1.8-0.9,2.7-2.2,2.7-4C1098.7,41.3,1096.2,39.7,1091.3,39.7z"/>
		<path class="st3" d="M1130,194.5c0-10.8,2.1-21.5,6.4-32.3s10.2-20.5,17.8-29.1c7.6-8.6,16.7-15.6,27.3-20.9
			c10.5-5.3,22.1-7.9,34.7-7.9c10.5,0,18.3,2.4,23.2,7.2c4.9,4.8,7.4,10.8,7.4,18c0,5.6-1.5,11.6-4.4,17.8
			c-2.9,6.3-7.2,12.1-13,17.3c-5.7,5.3-12.8,9.8-21.2,13.5c-8.4,3.7-18,5.9-28.8,6.6c2.2,4.3,5.2,7.6,8.9,9.9
			c3.7,2.4,7.8,3.5,12.3,3.5c10.1,0,20.1-2.8,30.1-8.4c10-5.6,18.2-15.6,24.7-30c1.3-1.3,3-2,5-2c1.3,0,2.6,0.5,3.7,1.3
			c1.1,0.9,1.6,2.1,1.3,3.7c-3.4,10.1-8,19.7-13.8,28.8c-5.8,9.1-12.5,17.1-20,24.1c-7.5,7-15.9,12.5-25.1,16.5
			c-9.2,4-19,6.2-29.3,6.4c-8.3,0-15.4-1.1-21.4-3.4c-5.9-2.2-10.9-5.4-14.8-9.4c-3.9-4-6.8-8.8-8.6-14.1
			C1130.9,206.3,1130,200.5,1130,194.5z M1176.4,172.9c7,0,13.3-1.7,19.2-5c5.8-3.4,10.9-7.4,15.3-12.1c4.4-4.7,7.8-9.7,10.3-15
			c2.5-5.3,3.7-9.8,3.7-13.6c0-2.5-0.7-4.4-2-5.9c-1.3-1.5-3.6-2.2-6.7-2.2c-4.7,0-9.4,1.6-14.1,4.9c-4.7,3.3-9,7.3-12.8,12.1
			c-3.8,4.8-7,10.2-9.4,16c-2.5,5.8-3.7,11.3-3.7,16.5C1176.1,170.6,1176.2,172,1176.4,172.9z"/>
		<path class="st3" d="M1297.9,242.9c-10.3,0-19.2-1.5-26.8-4.5c-7.5-3-13.7-6.9-18.5-11.6c-4.8-4.7-8.4-10-10.6-16
			c-2.2-5.9-3.4-11.8-3.4-17.7c0-7.6,1.1-14.2,3.4-19.9c2.2-5.6,5.2-10.3,8.9-14c3.7-3.7,7.8-6.5,12.3-8.4c4.5-1.9,8.9-2.9,13.1-2.9
			c7,0,12.9,2.3,17.8,6.9c4.9,4.6,6.8,11.6,5.7,21c-2.9,0-5.6,1.1-7.9,3.2c-2.4,2.1-3.5,4.8-3.5,7.9c0,2.9,1.1,5.5,3.4,7.7
			c2.2,2.2,6.1,3.4,11.4,3.4c4.5,0,8.5-1.5,12.1-4.4c3.6-2.9,5.4-7.3,5.4-13.1c0-4.5-1.1-8.6-3.2-12.5c-2.1-3.8-4.5-7.6-7.2-11.3
			c-2.7-3.7-5.1-7.5-7.2-11.4c-2.1-3.9-3.2-8.4-3.2-13.3c0-4.9,1.1-9.5,3.2-13.8c2.1-4.3,5-7.9,8.6-10.9c3.6-3,7.7-5.4,12.5-7.2
			c4.7-1.8,9.6-2.7,14.8-2.7c4.7,0,9.2,0.6,13.5,1.7c4.3,1.1,8,2.8,11.3,5c3.2,2.2,5.8,5,7.7,8.2c1.9,3.3,2.9,7,2.9,11.3
			c0,5.8-1.6,11-4.9,15.5c-3.3,4.5-8.2,6.7-15,6.7c-6.3,0-11.1-1.7-14.3-5c-3.3-3.4-4.9-7.6-4.9-12.8c2,0,4.1-0.4,6.4-1.3
			c2.2-0.9,3.4-2.6,3.4-5c0-1.8-0.9-3.2-2.7-4.2c-1.8-1-3.8-1.5-6.1-1.5c-3.1,0-6,1.2-8.6,3.7c-2.6,2.5-3.9,6.2-3.9,11.1
			c0,4.5,2,8.7,5.9,12.8c3.9,4,8.2,8.3,13,12.8c4.7,4.5,9,9.5,13,15.1c3.9,5.6,5.9,12.2,5.9,19.9c0,1.1,0,2.2,0,3.4
			c0,1.1-0.1,2.2-0.3,3.4c3.8,0,7.3-1.5,10.6-4.5c3.2-3,6.2-6.6,8.8-10.8c2.6-4.1,4.8-8.4,6.6-12.8c1.8-4.4,3.1-7.8,4-10.3
			c1.3-1.3,2.9-2,4.7-2c1.3,0,2.5,0.5,3.5,1.3c1,0.9,1.4,2.1,1.2,3.7C1385.1,216.2,1350.9,242.9,1297.9,242.9z"/>
		<path class="st3" d="M1421.1,85.8c1.3-5.6,2.2-10.8,2.5-15.5c0.3-4.7-0.1-9-1.2-12.8c1.3-2.7,3.7-4.9,7.1-6.6s7.3-2.5,11.8-2.5
			c5.4,0,10.3,1.7,14.6,5c4.4,3.4,6.6,9.3,6.6,17.8c0,1.8-0.2,3.9-0.7,6.4c-0.5,2.5-1,5.2-1.7,8.1h14.5c0,1.8-0.1,3.6-0.3,5.6
			c-0.2,1.9-0.7,3.6-1.5,5.2c-0.8,1.6-1.9,2.9-3.4,3.9c-1.5,1-3.4,1.5-5.9,1.5h-8.7c-2.9,8.5-6.4,17.6-10.4,27.1
			c-4,9.5-7.9,18.5-11.6,26.9c-3.7,8.4-6.8,15.8-9.3,22.2c-2.5,6.4-3.7,10.6-3.7,12.6c0,4.9,2.5,7.4,7.4,7.4c3.8,0,7.5-2,10.9-6.1
			c3.5-4,6.6-8.4,9.3-13.1c3.1-5.6,6.1-12,8.8-19.2c1.3-1.3,2.9-2,4.7-2c1.3,0,2.5,0.5,3.5,1.3c1,0.9,1.4,2.1,1.2,3.7
			c-3.4,11.2-7.7,21.5-13.1,30.8c-5.4,9.3-11.3,17.3-17.7,23.9c-6.4,6.6-13.1,11.8-20,15.5c-7,3.7-13.7,5.6-20.2,5.6
			c-6.5,0-11.9-1.8-16.3-5.4c-4.4-3.6-6.6-9.1-6.6-16.5c0-6.1,1.6-13.6,4.9-22.5c3.3-9,7.2-18.6,11.9-28.8
			c4.7-10.2,9.6-20.8,14.6-31.8c5-11,9.4-21.5,13-31.6h-14.5c-0.2-3.8,0.8-7.5,3-10.9c2.2-3.5,4.6-5.2,7.1-5.2H1421.1z"/>
		<path class="st3" d="M1448.7,194.5c0-10.8,2.1-21.5,6.4-32.3s10.2-20.5,17.8-29.1c7.6-8.6,16.7-15.6,27.3-20.9
			c10.5-5.3,22.1-7.9,34.7-7.9c10.5,0,18.3,2.4,23.2,7.2c4.9,4.8,7.4,10.8,7.4,18c0,5.6-1.5,11.6-4.4,17.8
			c-2.9,6.3-7.2,12.1-13,17.3c-5.7,5.3-12.8,9.8-21.2,13.5c-8.4,3.7-18,5.9-28.8,6.6c2.2,4.3,5.2,7.6,8.9,9.9
			c3.7,2.4,7.8,3.5,12.3,3.5c10.1,0,20.1-2.8,30.1-8.4c10-5.6,18.2-15.6,24.7-30c1.3-1.3,3-2,5-2c1.3,0,2.6,0.5,3.7,1.3
			c1.1,0.9,1.6,2.1,1.3,3.7c-3.4,10.1-8,19.7-13.8,28.8c-5.8,9.1-12.5,17.1-20,24.1c-7.5,7-15.9,12.5-25.1,16.5
			c-9.2,4-19,6.2-29.3,6.4c-8.3,0-15.4-1.1-21.4-3.4c-5.9-2.2-10.9-5.4-14.8-9.4c-3.9-4-6.8-8.8-8.6-14.1
			C1449.6,206.3,1448.7,200.5,1448.7,194.5z M1495.1,172.9c7,0,13.3-1.7,19.2-5c5.8-3.4,10.9-7.4,15.3-12.1c4.4-4.7,7.8-9.7,10.3-15
			c2.5-5.3,3.7-9.8,3.7-13.6c0-2.5-0.7-4.4-2-5.9c-1.3-1.5-3.6-2.2-6.7-2.2c-4.7,0-9.4,1.6-14.1,4.9c-4.7,3.3-9,7.3-12.8,12.1
			c-3.8,4.8-7,10.2-9.4,16c-2.5,5.8-3.7,11.3-3.7,16.5C1494.8,170.6,1494.9,172,1495.1,172.9z"/>
		<path class="st3" d="M1605.2,57.5c1.3-2.7,3.7-4.9,7.1-6.6s7.3-2.5,11.8-2.5c5.4,0,10.3,1.7,14.6,5c4.4,3.4,6.6,9.3,6.6,17.8
			c0,4.3-1.1,9.9-3.2,16.8c-2.1,7-4.8,14.5-7.9,22.7c-3.1,8.2-6.6,16.6-10.3,25.2c-3.7,8.6-7.1,16.7-10.3,24.2
			c-3.1,7.5-5.8,14-7.9,19.5c-2.1,5.5-3.2,9.1-3.2,10.9c0,4.9,2.5,7.4,7.4,7.4c3.8,0,7.5-2,10.9-6.1c3.5-4,6.6-8.4,9.3-13.1
			c3.1-5.6,6.1-12,8.8-19.2c1.3-1.3,2.9-2,4.7-2c1.3,0,2.5,0.5,3.5,1.3c1,0.9,1.4,2.1,1.2,3.7c-3.4,11.2-7.7,21.5-13.1,30.8
			c-5.4,9.3-11.3,17.3-17.7,23.9c-6.4,6.6-13.1,11.8-20,15.5c-7,3.7-13.7,5.6-20.2,5.6c-6.5,0-11.9-1.8-16.3-5.4
			c-4.4-3.6-6.6-9.1-6.6-16.5c0-5.8,1.5-13,4.5-21.4c3-8.4,6.7-17.5,11.1-27.3c4.4-9.8,9-19.9,13.8-30.3c4.8-10.4,9.1-20.6,13-30.5
			c3.8-9.9,6.6-19.1,8.4-27.8C1606.9,70.9,1606.9,63.6,1605.2,57.5z"/>
		<path class="st3" d="M1670.1,57.5c1.3-2.7,3.7-4.9,7.1-6.6s7.3-2.5,11.8-2.5c5.4,0,10.3,1.7,14.6,5c4.4,3.4,6.6,9.3,6.6,17.8
			c0,4.3-1.1,9.9-3.2,16.8c-2.1,7-4.8,14.5-7.9,22.7c-3.1,8.2-6.6,16.6-10.3,25.2c-3.7,8.6-7.1,16.7-10.3,24.2
			c-3.1,7.5-5.8,14-7.9,19.5c-2.1,5.5-3.2,9.1-3.2,10.9c0,4.9,2.5,7.4,7.4,7.4c3.8,0,7.5-2,10.9-6.1c3.5-4,6.6-8.4,9.3-13.1
			c3.1-5.6,6.1-12,8.8-19.2c1.3-1.3,2.9-2,4.7-2c1.3,0,2.5,0.5,3.5,1.3c1,0.9,1.4,2.1,1.2,3.7c-3.4,11.2-7.7,21.5-13.1,30.8
			c-5.4,9.3-11.3,17.3-17.7,23.9c-6.4,6.6-13.1,11.8-20,15.5c-7,3.7-13.7,5.6-20.2,5.6c-6.5,0-11.9-1.8-16.3-5.4
			c-4.4-3.6-6.6-9.1-6.6-16.5c0-5.8,1.5-13,4.5-21.4c3-8.4,6.7-17.5,11.1-27.3c4.4-9.8,9-19.9,13.8-30.3c4.8-10.4,9.1-20.6,13-30.5
			c3.8-9.9,6.6-19.1,8.4-27.8C1671.9,70.9,1671.9,63.6,1670.1,57.5z"/>
		<path class="st3" d="M1696.3,194.5c0-10.8,2.1-21.5,6.4-32.3s10.2-20.5,17.8-29.1c7.6-8.6,16.7-15.6,27.3-20.9
			c10.5-5.3,22.1-7.9,34.7-7.9c10.5,0,18.3,2.4,23.2,7.2c4.9,4.8,7.4,10.8,7.4,18c0,5.6-1.5,11.6-4.4,17.8
			c-2.9,6.3-7.2,12.1-13,17.3c-5.7,5.3-12.8,9.8-21.2,13.5c-8.4,3.7-18,5.9-28.8,6.6c2.2,4.3,5.2,7.6,8.9,9.9
			c3.7,2.4,7.8,3.5,12.3,3.5c10.1,0,20.1-2.8,30.1-8.4c10-5.6,18.2-15.6,24.7-30c1.3-1.3,3-2,5-2c1.3,0,2.6,0.5,3.7,1.3
			c1.1,0.9,1.6,2.1,1.3,3.7c-3.4,10.1-8,19.7-13.8,28.8c-5.8,9.1-12.5,17.1-20,24.1c-7.5,7-15.9,12.5-25.1,16.5
			c-9.2,4-19,6.2-29.3,6.4c-8.3,0-15.4-1.1-21.4-3.4c-5.9-2.2-10.9-5.4-14.8-9.4c-3.9-4-6.8-8.8-8.6-14.1
			C1697.2,206.3,1696.3,200.5,1696.3,194.5z M1742.8,172.9c7,0,13.3-1.7,19.2-5c5.8-3.4,10.9-7.4,15.3-12.1c4.4-4.7,7.8-9.7,10.3-15
			c2.5-5.3,3.7-9.8,3.7-13.6c0-2.5-0.7-4.4-2-5.9c-1.3-1.5-3.6-2.2-6.7-2.2c-4.7,0-9.4,1.6-14.1,4.9c-4.7,3.3-9,7.3-12.8,12.1
			c-3.8,4.8-7,10.2-9.4,16c-2.5,5.8-3.7,11.3-3.7,16.5C1742.4,170.6,1742.6,172,1742.8,172.9z"/>
	</g>
	<g class="st0">
		<path class="st4" d="M218.9,78.4c0.8,1.1,1.7,2,2.8,2.8c1.1,0.5,2.2,1.1,3.6,1.8c1.3,0.7,3,1,5.2,1c7.7,0,13.5-2.6,17.5-7.9
			c4-5.3,6-11,6-17.1c0-7.7-2-13.3-6-16.9c-4-3.6-9-5.4-15.1-5.4c-4.5,0-9.1,1.3-13.7,3.8c-4.6,2.5-8.8,6.1-12.5,10.7
			c-3.7,4.6-6.7,10.3-8.9,16.9c-2.3,6.6-3.4,14-3.4,22.2c0,9.8,1.1,19,3.2,27.6c2.1,8.6,4.4,17.3,6.9,26.2c2.5,8.9,4.8,18.2,6.9,28
			c2.1,9.8,3.2,20.8,3.2,33c0,10.1-2.1,20.2-6.4,30.4c-4.2,10.2-10.3,19.3-18.1,27.4c-7.8,8.1-17.3,14.6-28.6,19.7
			c-11.3,5-24,7.5-38.3,7.5c-17.2,0-32-2.7-44.5-8.1c-12.4-5.4-22.8-12.5-31-21.2c-8.2-8.7-14.2-18.7-18.1-30
			c-3.8-11.2-5.8-22.7-5.8-34.3c0-11.1,2-21.5,6-31.2c4-9.7,9.5-18.1,16.5-25.4c7-7.3,15.2-13,24.6-17.3c9.4-4.2,19.4-6.4,30-6.4
			c6.4,0,12.2,1,17.7,3c5.4,2,10,4.7,13.7,8.1c3.7,3.4,6.6,7.3,8.7,11.5c2.1,4.2,3.2,8.7,3.2,13.5c0,5.3-1.1,9.5-3.2,12.5
			c-2.1,3-4.1,5.2-6,6.6c-1.9-1.1-4-1.6-6.4-1.6c-4,0-7.7,1.7-11.1,5c-3.4,3.3-5.2,7.6-5.2,12.9c0,8.5,2.7,14.9,8.1,19.3
			c5.4,4.4,11.6,6.6,18.5,6.6c3.7,0,7.5-0.7,11.3-2.2c3.8-1.5,7.2-3.6,10.1-6.4c2.9-2.8,5.3-6.4,7.1-10.9c1.8-4.5,2.8-9.7,2.8-15.5
			c0-6.9-0.6-13.7-1.8-20.5c-1.2-6.8-2.5-13.8-3.8-21c-1.3-7.3-2.6-15-3.8-23c-1.2-8.1-1.8-16.6-1.8-25.6c0-11.6,2.3-22.2,6.9-31.6
			c4.6-9.4,10.6-17.3,17.9-23.8c7.3-6.5,15.4-11.5,24.4-15.1c9-3.6,17.9-5.4,26.6-5.4c7.1,0,14,1.2,20.6,3.6
			c6.6,2.4,12.4,5.9,17.3,10.5C278,31.2,282,37,285,43.9c3,6.9,4.6,14.8,4.6,23.8c0,9.8-1.6,18.3-4.8,25.4
			c-3.2,7.1-7.1,13.1-11.9,17.9s-10,8.3-15.7,10.5c-5.7,2.3-11.2,3.4-16.5,3.4c-4.5,0-8.6-0.9-12.3-2.6c-3.7-1.7-6.8-3.9-9.3-6.6
			c-2.5-2.6-4.5-5.7-6-9.1c-1.5-3.4-2.2-6.9-2.2-10.3c0-2.9,0.6-5.9,1.8-8.9C213.9,84.3,216,81.3,218.9,78.4z"/>
	</g>
	<g class="st0">
		<path class="st4" d="M328.4,104.3c5.4,0,10,0.9,14,2.7c3.9,1.8,7.2,4,9.8,6.7c2.6,2.7,4.4,5.7,5.6,8.9c1.1,3.3,1.7,6.5,1.7,9.6
			c0,3.8-0.8,7.9-2.5,12.3s-4.1,8.4-7.2,12.1c-3.1,3.7-6.9,6.7-11.3,9.1c-4.4,2.4-9.4,3.5-15,3.5c-5.2,0-9.5-1.2-13-3.5
			c-3.5-2.4-5.2-6.1-5.2-11.3c0-2,0.3-3.9,0.8-5.6c0.6-1.7,1.2-3.1,1.9-4.2c0.7-1.6,1.5-2.9,2.4-4c0.4,0.2,1,0.5,1.7,0.7
			c1.3,0.5,2.8,0.7,4.4,0.7c5.2,0,9.6-1.7,13.5-5c3.8-3.4,5.7-7,5.7-10.8c0-3.4-1-5.4-2.9-6.1c-1.9-0.7-3.3-1-4.2-1
			c-4.7,0-9.4,1.6-14.1,4.9c-4.7,3.3-9,7.3-12.8,12.1c-3.8,4.8-7,10.2-9.4,16c-2.5,5.8-3.7,11.3-3.7,16.5c0,9.4,2.4,16.7,7.2,21.9
			c4.8,5.2,10.6,7.7,17.3,7.7c10.1,0,20.1-2.8,30.1-8.4c10-5.6,18.2-15.6,24.7-30c1.3-1.3,3-2,5-2c1.3,0,2.6,0.5,3.7,1.3
			c1.1,0.9,1.6,2.1,1.3,3.7c-3.4,10.1-8,19.7-13.8,28.8c-5.8,9.1-12.5,17.1-20,24.1c-7.5,7-15.9,12.5-25.1,16.5
			c-9.2,4-19,6.2-29.3,6.4c-8.3,0-15.4-1.1-21.4-3.4c-5.9-2.2-10.9-5.4-14.8-9.4c-3.9-4-6.8-8.8-8.6-14.1
			c-1.8-5.4-2.7-11.1-2.7-17.2c0-10.8,2.1-21.5,6.4-32.3s10.2-20.5,17.8-29.1c7.6-8.6,16.7-15.6,27.3-20.9
			C304.3,106.9,315.9,104.3,328.4,104.3z"/>
		<path class="st4" d="M359.7,198.2c0-13.2,2.6-25.6,7.9-37c5.3-11.4,11.9-21.4,19.9-29.8c8-8.4,16.5-15,25.7-19.9
			c9.2-4.8,17.7-7.2,25.6-7.2c9.6,0,16.5,2.8,20.5,8.4c4,5.6,6.1,12.7,6.1,21.2c0,6.1-1,12.7-2.9,19.9c-1.9,7.2-4.4,14.5-7.6,21.9
			c0.4,1.8,1.2,3.4,2.4,4.7c1.1,1.3,3.1,2,6.1,2c2.5,0,4.5-0.7,6.2-2.2c1.7-1.5,3.2-3.2,4.5-5.4c1.3-2.1,2.5-4.5,3.5-7.2
			c1-2.7,2-5.3,2.9-7.7c1.3-1.3,2.9-2,4.7-2c1.3,0,2.5,0.5,3.5,1.3c1,0.9,1.4,2.1,1.2,3.7c-0.7,4.5-2.1,9-4.4,13.6
			c-2.2,4.6-5.2,8.8-8.8,12.6c-3.6,3.8-7.6,6.9-12.1,9.3c-4.5,2.4-9.3,3.5-14.5,3.5c-2.9,0-5.8-0.6-8.8-1.7
			c-7.2,10.8-15.3,19.9-24.2,27.3c-9,7.4-17.8,11.1-26.6,11.1c-5.4,0-10-1.1-14-3.2c-3.9-2.1-7.2-5-9.8-8.8c-2.6-3.7-4.4-8-5.6-12.8
			C360.3,209,359.7,203.8,359.7,198.2z M398.1,183.4c0,4.5,0.8,8.1,2.5,10.8c1.7,2.7,4.4,4,8.2,4c2.9,0,6-1.1,9.3-3.2
			c3.2-2.1,6.4-5,9.6-8.6c-1.3-3.1-2-6.6-2-10.4c0-6.7,2-12.7,6.1-18c4-5.3,9.6-7.9,16.8-7.9c0.7-2.5,1.2-4.8,1.7-7.1
			c0.4-2.2,0.7-4.4,0.7-6.4c0-3.4-0.8-6.1-2.4-8.2c-1.6-2.1-4-3.2-7.4-3.2c-4.9,0-10,2-15.1,5.9c-5.2,3.9-9.8,8.8-14,14.6
			c-4.2,5.8-7.5,12.1-10.1,18.8C399.4,171.3,398.1,177.5,398.1,183.4z"/>
		<path class="st4" d="M510.8,85.8c1.3-5.6,2.2-10.8,2.5-15.5c0.3-4.7-0.1-9-1.2-12.8c1.3-2.7,3.7-4.9,7.1-6.6s7.3-2.5,11.8-2.5
			c5.4,0,10.3,1.7,14.6,5c4.4,3.4,6.6,9.3,6.6,17.8c0,1.8-0.2,3.9-0.7,6.4c-0.5,2.5-1,5.2-1.7,8.1h14.5c0,1.8-0.1,3.6-0.3,5.6
			c-0.2,1.9-0.7,3.6-1.5,5.2c-0.8,1.6-1.9,2.9-3.4,3.9c-1.5,1-3.4,1.5-5.9,1.5h-8.7c-2.9,8.5-6.4,17.6-10.4,27.1
			c-4,9.5-7.9,18.5-11.6,26.9c-3.7,8.4-6.8,15.8-9.3,22.2c-2.5,6.4-3.7,10.6-3.7,12.6c0,4.9,2.5,7.4,7.4,7.4c3.8,0,7.5-2,10.9-6.1
			c3.5-4,6.6-8.4,9.3-13.1c3.1-5.6,6.1-12,8.8-19.2c1.3-1.3,2.9-2,4.7-2c1.3,0,2.5,0.5,3.5,1.3c1,0.9,1.4,2.1,1.2,3.7
			c-3.4,11.2-7.7,21.5-13.1,30.8c-5.4,9.3-11.3,17.3-17.7,23.9c-6.4,6.6-13.1,11.8-20,15.5c-7,3.7-13.7,5.6-20.2,5.6
			c-6.5,0-11.9-1.8-16.3-5.4c-4.4-3.6-6.6-9.1-6.6-16.5c0-6.1,1.6-13.6,4.9-22.5c3.3-9,7.2-18.6,11.9-28.8
			c4.7-10.2,9.6-20.8,14.6-31.8c5-11,9.4-21.5,13-31.6h-14.5c-0.2-3.8,0.8-7.5,3-10.9c2.2-3.5,4.6-5.2,7.1-5.2H510.8z"/>
		<path class="st4" d="M575.8,85.8c1.3-5.6,2.2-10.8,2.5-15.5c0.3-4.7-0.1-9-1.2-12.8c1.3-2.7,3.7-4.9,7.1-6.6s7.3-2.5,11.8-2.5
			c5.4,0,10.3,1.7,14.6,5c4.4,3.4,6.6,9.3,6.6,17.8c0,1.8-0.2,3.9-0.7,6.4c-0.5,2.5-1,5.2-1.7,8.1h14.5c0,1.8-0.1,3.6-0.3,5.6
			c-0.2,1.9-0.7,3.6-1.5,5.2c-0.8,1.6-1.9,2.9-3.4,3.9c-1.5,1-3.4,1.5-5.9,1.5h-8.7c-2.9,8.5-6.4,17.6-10.4,27.1
			c-4,9.5-7.9,18.5-11.6,26.9c-3.7,8.4-6.8,15.8-9.3,22.2c-2.5,6.4-3.7,10.6-3.7,12.6c0,4.9,2.5,7.4,7.4,7.4c3.8,0,7.5-2,10.9-6.1
			c3.5-4,6.6-8.4,9.3-13.1c3.1-5.6,6.1-12,8.8-19.2c1.3-1.3,2.9-2,4.7-2c1.3,0,2.5,0.5,3.5,1.3c1,0.9,1.4,2.1,1.2,3.7
			c-3.4,11.2-7.7,21.5-13.1,30.8c-5.4,9.3-11.3,17.3-17.7,23.9c-6.4,6.6-13.1,11.8-20,15.5c-7,3.7-13.7,5.6-20.2,5.6
			c-6.5,0-11.9-1.8-16.3-5.4c-4.4-3.6-6.6-9.1-6.6-16.5c0-6.1,1.6-13.6,4.9-22.5c3.3-9,7.2-18.6,11.9-28.8
			c4.7-10.2,9.6-20.8,14.6-31.8c5-11,9.4-21.5,13-31.6h-14.5c-0.2-3.8,0.8-7.5,3-10.9c2.2-3.5,4.6-5.2,7.1-5.2H575.8z"/>
	</g>
	<g class="st0">
		<path class="st4" d="M742,238.6c-10.5,0-19.7-1.3-27.4-3.9c-7.7-2.6-14.2-6.2-19.4-10.9c-5.2-4.7-9-10.3-11.4-16.7
			c-2.5-6.4-3.7-13.3-3.7-20.7c0-9.9,1.7-18.4,5.2-25.6c3.5-7.2,8.1-13.6,14-19.2c5.8-5.6,12.5-10.4,19.9-14.5s15.1-7.7,23.2-11.1
			c2.7-15.9,6.6-29.2,11.8-39.9c5.2-10.7,10.8-19.2,17-25.7c6.2-6.5,12.5-11.2,18.8-14c6.4-2.8,12.2-4.2,17.3-4.2
			c5.2,0,9.9,1,14.3,2.9c4.4,1.9,8.2,4.4,11.4,7.4c3.2,3,5.8,6.6,7.7,10.6c1.9,4,2.9,8.2,2.9,12.5c0,10.1-2.2,18.7-6.7,25.9
			c-4.5,7.2-10.2,13.5-17.2,18.8c-7,5.4-14.7,10-23.2,14c-8.5,3.9-16.8,7.6-24.9,10.9c0,6.7,0.4,13.4,1.3,19.9
			c0.9,6.5,2.2,12.7,4,18.5c5.8-3.6,10.8-7.7,15-12.3c4.1-4.6,6.2-9,6.2-13.3c9.4,0,16.3,2.8,20.7,8.2c4.4,5.5,6.6,12.2,6.6,20
			c0,6.7-1.7,13.7-5,21c-3.4,7.3-8.4,14-15.1,20c3.1,2.2,6.6,4,10.4,5.2c3.8,1.2,7.8,1.9,12.1,1.9c0.7,2.7,0.6,6-0.3,9.9
			c-0.9,3.9-2.6,7.7-5.2,11.4c-2.6,3.7-6,6.8-10.3,9.4c-4.3,2.6-9.4,3.9-15.5,3.9c-7.9,0-14.9-2-21.2-5.9
			c-6.3-3.9-11.8-9.1-16.5-15.6C753.9,238.2,748.3,238.6,742,238.6z M739,151.7c-3.1,2.5-5.6,5.1-7.4,7.9c-1.8,2.8-2.7,5.9-2.7,9.3
			c0,7.9,3.8,12.7,11.4,14.5c-0.5-3.8-0.8-7.6-1-11.4c-0.2-3.8-0.3-7.7-0.3-11.8V151.7z M774,103.6c5.8-2.5,11.3-4.9,16.3-7.4
			c5-2.5,9.5-5.2,13.3-8.2c3.8-3,6.8-6.3,8.9-9.9c2.1-3.6,3.2-7.7,3.2-12.5c0-8.3-3.4-12.5-10.1-12.5c-7.9,0-14.5,4.7-20,14.1
			C780.1,76.7,776.2,88.8,774,103.6z"/>
	</g>
	<g class="st0">
		<path class="st4" d="M879.3,204.9c0-7.2,1.2-14.2,3.7-21.2c2.5-7,5.9-13.1,10.3-18.5c4.4-5.4,9.6-9.8,15.8-13.1
			c6.2-3.4,13.1-5,20.7-5c6.5,0,11.9,1.6,16.3,4.7c4.4,3.1,6.6,7.6,6.6,13.5c-2.7,0-4.9,1.4-6.6,4.2c-1.7,2.8-2.5,6.1-2.5,9.9
			c0,4.5,1.5,8.8,4.5,12.8c3,4,8.1,6.1,15.3,6.1c5.6,0,10.9-1.6,16-4.7c5-3.1,9.9-7.3,14.5-12.6c4.6-5.3,9-11.5,13.1-18.7
			c4.1-7.2,8.2-14.8,12.3-22.9c-3.1-4.3-4.7-8.9-4.7-13.8c0-6.1,2.2-11.3,6.6-15.6c4.4-4.4,9.6-7.3,15.6-8.9
			c3.4-7.9,6.7-15.4,10.1-22.5c3.4-7.2,6.8-13.9,10.4-20.2c-7.4-2.5-15-5-22.9-7.6c-7.9-2.6-15.9-3.9-24.2-3.9
			c-4.7,0-8.9,0.8-12.5,2.4c-3.6,1.6-6.6,3.6-8.9,6.1c-2.4,2.5-4.2,5.3-5.4,8.4c-1.2,3.1-1.9,6.3-1.9,9.4c0,6.3,1.5,11.2,4.5,14.6
			c3,3.5,5.9,5.6,8.6,6.2c0,3.1-1.1,6.6-3.2,10.4c-2.1,3.8-5,7.4-8.7,10.8c-3.7,3.4-8,6.2-13,8.6c-4.9,2.4-10.3,3.5-16.2,3.5
			c-5.6,0-10.8-1.1-15.5-3.2c-4.7-2.1-8.8-5-12.1-8.6c-3.4-3.6-5.9-7.9-7.7-12.8c-1.8-4.9-2.7-10.2-2.7-15.8
			c0-6.7,1.5-13.6,4.5-20.5c3-7,7.6-13.3,13.8-19c6.2-5.7,13.9-10.4,23.2-14c9.3-3.6,20.1-5.4,32.5-5.4c6.7,0,13.3,0.7,19.9,2
			c6.5,1.3,12.8,2.9,19,4.7c6.2,1.8,12.3,3.8,18.3,5.9c6.1,2.1,12,4,17.8,5.6c4-5.8,8.1-10.4,12.1-13.6c4-3.2,8.3-4.9,12.8-4.9
			c5.2,0,9.6,1.7,13.3,5.2c3.7,3.5,5.6,7.6,5.6,12.3c0,5.4-2.1,9.9-6.2,13.6c-4.2,3.7-9.9,5.6-17.3,5.6c-4,0-7.9-0.4-11.4-1.3
			c-2,5.6-4,11.9-5.9,19c-1.9,7.1-4,14.5-6.2,22.4c4.5,2.7,8.2,6.5,11.1,11.4c14.8-10.1,27.3-20.4,37.4-30.8s19-19.9,26.8-28.4
			c7.7-8.5,15-15.5,21.7-21c6.7-5.5,14.4-8.2,22.9-8.2c2.7,0,5.6,0.5,8.8,1.3c3.1,0.9,6.1,2.4,8.7,4.5c2.7,2.1,4.9,5,6.6,8.7
			s2.5,8.4,2.5,14c0,4.7-1,8.9-2.9,12.5c-1.9,3.6-4.3,6.7-7.2,9.3c-2.9,2.6-6.1,4.5-9.6,5.9c-3.5,1.3-6.8,2-9.9,2
			c-2,0-3.6-0.3-4.9-0.8c-1.2-0.6-2.4-1.1-3.5-1.5c0-2.5-0.3-4.6-1-6.4c-0.7-1.8-1.7-3.3-3.2-4.5c-1.5-1.2-3.8-1.9-6.9-1.9
			c-2.9,0-7.1,2.2-12.6,6.6c-5.5,4.4-11.7,9.8-18.7,16.2c-7,6.4-14.5,13-22.5,19.9c-8.1,6.8-16.4,12.8-24.9,18
			c2.7,7.4,4.9,15.5,6.6,24.4c1.7,8.9,3.4,17.8,5.2,26.9c1.8,9.1,4,17.8,6.6,26.2c2.6,8.4,5.9,15.9,10.1,22.5
			c4.1,6.6,9.4,11.9,15.6,15.8c6.3,3.9,14.1,5.9,23.6,5.9c5.2,0,10-1.4,14.5-4.2c4.5-2.8,7.3-6,8.4-9.6c5.2,2.7,8.7,6.2,10.6,10.6
			c1.9,4.4,2.9,9.8,2.9,16.3c0,5.4-1.3,10.8-3.9,16.3c-2.6,5.5-6.3,10.4-11.1,14.8c-4.8,4.4-10.8,8-18,10.8
			c-7.2,2.8-15.5,4.2-24.9,4.2c-11.4,0-20.8-2-28.1-5.9c-7.3-3.9-13.1-9.2-17.3-15.8c-4.3-6.6-7.2-14.2-8.9-22.9
			c-1.7-8.6-2.7-17.6-3-26.9c-0.3-9.3-0.3-18.7,0.2-28.3c0.4-9.5,0.7-18.5,0.7-26.9s-0.5-15.9-1.5-22.5c-1-6.6-3.1-11.7-6.2-15.3
			c-4.7,2.5-9.5,4-14.5,4.7c-4.7,13.9-10.2,27.5-16.5,40.7c-6.3,13.2-13.7,25.1-22.4,35.5c-8.6,10.4-18.7,18.8-30.1,25.2
			c-11.4,6.4-24.8,9.6-40,9.6c-9.6,0-18.2-1.7-25.6-5c-7.4-3.4-13.6-7.8-18.5-13.3c-4.9-5.5-8.6-11.7-11.1-18.7
			C880.5,219.2,879.3,212.1,879.3,204.9z M1091.3,39.7c-4,0-7.9,3.1-11.4,9.4c1.8,0.2,3.5,0.4,5.2,0.5c1.7,0.1,3.4,0.2,5.2,0.2
			c2,0,3.9-0.4,5.7-1.3c1.8-0.9,2.7-2.2,2.7-4C1098.7,41.3,1096.2,39.7,1091.3,39.7z"/>
		<path class="st4" d="M1130,194.5c0-10.8,2.1-21.5,6.4-32.3s10.2-20.5,17.8-29.1c7.6-8.6,16.7-15.6,27.3-20.9
			c10.5-5.3,22.1-7.9,34.7-7.9c10.5,0,18.3,2.4,23.2,7.2c4.9,4.8,7.4,10.8,7.4,18c0,5.6-1.5,11.6-4.4,17.8
			c-2.9,6.3-7.2,12.1-13,17.3c-5.7,5.3-12.8,9.8-21.2,13.5c-8.4,3.7-18,5.9-28.8,6.6c2.2,4.3,5.2,7.6,8.9,9.9
			c3.7,2.4,7.8,3.5,12.3,3.5c10.1,0,20.1-2.8,30.1-8.4c10-5.6,18.2-15.6,24.7-30c1.3-1.3,3-2,5-2c1.3,0,2.6,0.5,3.7,1.3
			c1.1,0.9,1.6,2.1,1.3,3.7c-3.4,10.1-8,19.7-13.8,28.8c-5.8,9.1-12.5,17.1-20,24.1c-7.5,7-15.9,12.5-25.1,16.5
			c-9.2,4-19,6.2-29.3,6.4c-8.3,0-15.4-1.1-21.4-3.4c-5.9-2.2-10.9-5.4-14.8-9.4c-3.9-4-6.8-8.8-8.6-14.1
			C1130.9,206.3,1130,200.5,1130,194.5z M1176.4,172.9c7,0,13.3-1.7,19.2-5c5.8-3.4,10.9-7.4,15.3-12.1c4.4-4.7,7.8-9.7,10.3-15
			c2.5-5.3,3.7-9.8,3.7-13.6c0-2.5-0.7-4.4-2-5.9c-1.3-1.5-3.6-2.2-6.7-2.2c-4.7,0-9.4,1.6-14.1,4.9c-4.7,3.3-9,7.3-12.8,12.1
			c-3.8,4.8-7,10.2-9.4,16c-2.5,5.8-3.7,11.3-3.7,16.5C1176.1,170.6,1176.2,172,1176.4,172.9z"/>
		<path class="st4" d="M1297.9,242.9c-10.3,0-19.2-1.5-26.8-4.5c-7.5-3-13.7-6.9-18.5-11.6c-4.8-4.7-8.4-10-10.6-16
			c-2.2-5.9-3.4-11.8-3.4-17.7c0-7.6,1.1-14.2,3.4-19.9c2.2-5.6,5.2-10.3,8.9-14c3.7-3.7,7.8-6.5,12.3-8.4c4.5-1.9,8.9-2.9,13.1-2.9
			c7,0,12.9,2.3,17.8,6.9c4.9,4.6,6.8,11.6,5.7,21c-2.9,0-5.6,1.1-7.9,3.2c-2.4,2.1-3.5,4.8-3.5,7.9c0,2.9,1.1,5.5,3.4,7.7
			c2.2,2.2,6.1,3.4,11.4,3.4c4.5,0,8.5-1.5,12.1-4.4c3.6-2.9,5.4-7.3,5.4-13.1c0-4.5-1.1-8.6-3.2-12.5c-2.1-3.8-4.5-7.6-7.2-11.3
			c-2.7-3.7-5.1-7.5-7.2-11.4c-2.1-3.9-3.2-8.4-3.2-13.3c0-4.9,1.1-9.5,3.2-13.8c2.1-4.3,5-7.9,8.6-10.9c3.6-3,7.7-5.4,12.5-7.2
			c4.7-1.8,9.6-2.7,14.8-2.7c4.7,0,9.2,0.6,13.5,1.7c4.3,1.1,8,2.8,11.3,5c3.2,2.2,5.8,5,7.7,8.2c1.9,3.3,2.9,7,2.9,11.3
			c0,5.8-1.6,11-4.9,15.5c-3.3,4.5-8.2,6.7-15,6.7c-6.3,0-11.1-1.7-14.3-5c-3.3-3.4-4.9-7.6-4.9-12.8c2,0,4.1-0.4,6.4-1.3
			c2.2-0.9,3.4-2.6,3.4-5c0-1.8-0.9-3.2-2.7-4.2c-1.8-1-3.8-1.5-6.1-1.5c-3.1,0-6,1.2-8.6,3.7c-2.6,2.5-3.9,6.2-3.9,11.1
			c0,4.5,2,8.7,5.9,12.8c3.9,4,8.2,8.3,13,12.8c4.7,4.5,9,9.5,13,15.1c3.9,5.6,5.9,12.2,5.9,19.9c0,1.1,0,2.2,0,3.4
			c0,1.1-0.1,2.2-0.3,3.4c3.8,0,7.3-1.5,10.6-4.5c3.2-3,6.2-6.6,8.8-10.8c2.6-4.1,4.8-8.4,6.6-12.8c1.8-4.4,3.1-7.8,4-10.3
			c1.3-1.3,2.9-2,4.7-2c1.3,0,2.5,0.5,3.5,1.3c1,0.9,1.4,2.1,1.2,3.7C1385.1,216.2,1350.9,242.9,1297.9,242.9z"/>
		<path class="st4" d="M1421.1,85.8c1.3-5.6,2.2-10.8,2.5-15.5c0.3-4.7-0.1-9-1.2-12.8c1.3-2.7,3.7-4.9,7.1-6.6s7.3-2.5,11.8-2.5
			c5.4,0,10.3,1.7,14.6,5c4.4,3.4,6.6,9.3,6.6,17.8c0,1.8-0.2,3.9-0.7,6.4c-0.5,2.5-1,5.2-1.7,8.1h14.5c0,1.8-0.1,3.6-0.3,5.6
			c-0.2,1.9-0.7,3.6-1.5,5.2c-0.8,1.6-1.9,2.9-3.4,3.9c-1.5,1-3.4,1.5-5.9,1.5h-8.7c-2.9,8.5-6.4,17.6-10.4,27.1
			c-4,9.5-7.9,18.5-11.6,26.9c-3.7,8.4-6.8,15.8-9.3,22.2c-2.5,6.4-3.7,10.6-3.7,12.6c0,4.9,2.5,7.4,7.4,7.4c3.8,0,7.5-2,10.9-6.1
			c3.5-4,6.6-8.4,9.3-13.1c3.1-5.6,6.1-12,8.8-19.2c1.3-1.3,2.9-2,4.7-2c1.3,0,2.5,0.5,3.5,1.3c1,0.9,1.4,2.1,1.2,3.7
			c-3.4,11.2-7.7,21.5-13.1,30.8c-5.4,9.3-11.3,17.3-17.7,23.9c-6.4,6.6-13.1,11.8-20,15.5c-7,3.7-13.7,5.6-20.2,5.6
			c-6.5,0-11.9-1.8-16.3-5.4c-4.4-3.6-6.6-9.1-6.6-16.5c0-6.1,1.6-13.6,4.9-22.5c3.3-9,7.2-18.6,11.9-28.8
			c4.7-10.2,9.6-20.8,14.6-31.8c5-11,9.4-21.5,13-31.6h-14.5c-0.2-3.8,0.8-7.5,3-10.9c2.2-3.5,4.6-5.2,7.1-5.2H1421.1z"/>
		<path class="st4" d="M1448.7,194.5c0-10.8,2.1-21.5,6.4-32.3s10.2-20.5,17.8-29.1c7.6-8.6,16.7-15.6,27.3-20.9
			c10.5-5.3,22.1-7.9,34.7-7.9c10.5,0,18.3,2.4,23.2,7.2c4.9,4.8,7.4,10.8,7.4,18c0,5.6-1.5,11.6-4.4,17.8
			c-2.9,6.3-7.2,12.1-13,17.3c-5.7,5.3-12.8,9.8-21.2,13.5c-8.4,3.7-18,5.9-28.8,6.6c2.2,4.3,5.2,7.6,8.9,9.9
			c3.7,2.4,7.8,3.5,12.3,3.5c10.1,0,20.1-2.8,30.1-8.4c10-5.6,18.2-15.6,24.7-30c1.3-1.3,3-2,5-2c1.3,0,2.6,0.5,3.7,1.3
			c1.1,0.9,1.6,2.1,1.3,3.7c-3.4,10.1-8,19.7-13.8,28.8c-5.8,9.1-12.5,17.1-20,24.1c-7.5,7-15.9,12.5-25.1,16.5
			c-9.2,4-19,6.2-29.3,6.4c-8.3,0-15.4-1.1-21.4-3.4c-5.9-2.2-10.9-5.4-14.8-9.4c-3.9-4-6.8-8.8-8.6-14.1
			C1449.6,206.3,1448.7,200.5,1448.7,194.5z M1495.1,172.9c7,0,13.3-1.7,19.2-5c5.8-3.4,10.9-7.4,15.3-12.1c4.4-4.7,7.8-9.7,10.3-15
			c2.5-5.3,3.7-9.8,3.7-13.6c0-2.5-0.7-4.4-2-5.9c-1.3-1.5-3.6-2.2-6.7-2.2c-4.7,0-9.4,1.6-14.1,4.9c-4.7,3.3-9,7.3-12.8,12.1
			c-3.8,4.8-7,10.2-9.4,16c-2.5,5.8-3.7,11.3-3.7,16.5C1494.8,170.6,1494.9,172,1495.1,172.9z"/>
		<path class="st4" d="M1605.2,57.5c1.3-2.7,3.7-4.9,7.1-6.6s7.3-2.5,11.8-2.5c5.4,0,10.3,1.7,14.6,5c4.4,3.4,6.6,9.3,6.6,17.8
			c0,4.3-1.1,9.9-3.2,16.8c-2.1,7-4.8,14.5-7.9,22.7c-3.1,8.2-6.6,16.6-10.3,25.2c-3.7,8.6-7.1,16.7-10.3,24.2
			c-3.1,7.5-5.8,14-7.9,19.5c-2.1,5.5-3.2,9.1-3.2,10.9c0,4.9,2.5,7.4,7.4,7.4c3.8,0,7.5-2,10.9-6.1c3.5-4,6.6-8.4,9.3-13.1
			c3.1-5.6,6.1-12,8.8-19.2c1.3-1.3,2.9-2,4.7-2c1.3,0,2.5,0.5,3.5,1.3c1,0.9,1.4,2.1,1.2,3.7c-3.4,11.2-7.7,21.5-13.1,30.8
			c-5.4,9.3-11.3,17.3-17.7,23.9c-6.4,6.6-13.1,11.8-20,15.5c-7,3.7-13.7,5.6-20.2,5.6c-6.5,0-11.9-1.8-16.3-5.4
			c-4.4-3.6-6.6-9.1-6.6-16.5c0-5.8,1.5-13,4.5-21.4c3-8.4,6.7-17.5,11.1-27.3c4.4-9.8,9-19.9,13.8-30.3c4.8-10.4,9.1-20.6,13-30.5
			c3.8-9.9,6.6-19.1,8.4-27.8C1606.9,70.9,1606.9,63.6,1605.2,57.5z"/>
		<path class="st4" d="M1670.1,57.5c1.3-2.7,3.7-4.9,7.1-6.6s7.3-2.5,11.8-2.5c5.4,0,10.3,1.7,14.6,5c4.4,3.4,6.6,9.3,6.6,17.8
			c0,4.3-1.1,9.9-3.2,16.8c-2.1,7-4.8,14.5-7.9,22.7c-3.1,8.2-6.6,16.6-10.3,25.2c-3.7,8.6-7.1,16.7-10.3,24.2
			c-3.1,7.5-5.8,14-7.9,19.5c-2.1,5.5-3.2,9.1-3.2,10.9c0,4.9,2.5,7.4,7.4,7.4c3.8,0,7.5-2,10.9-6.1c3.5-4,6.6-8.4,9.3-13.1
			c3.1-5.6,6.1-12,8.8-19.2c1.3-1.3,2.9-2,4.7-2c1.3,0,2.5,0.5,3.5,1.3c1,0.9,1.4,2.1,1.2,3.7c-3.4,11.2-7.7,21.5-13.1,30.8
			c-5.4,9.3-11.3,17.3-17.7,23.9c-6.4,6.6-13.1,11.8-20,15.5c-7,3.7-13.7,5.6-20.2,5.6c-6.5,0-11.9-1.8-16.3-5.4
			c-4.4-3.6-6.6-9.1-6.6-16.5c0-5.8,1.5-13,4.5-21.4c3-8.4,6.7-17.5,11.1-27.3c4.4-9.8,9-19.9,13.8-30.3c4.8-10.4,9.1-20.6,13-30.5
			c3.8-9.9,6.6-19.1,8.4-27.8C1671.9,70.9,1671.9,63.6,1670.1,57.5z"/>
		<path class="st4" d="M1696.3,194.5c0-10.8,2.1-21.5,6.4-32.3s10.2-20.5,17.8-29.1c7.6-8.6,16.7-15.6,27.3-20.9
			c10.5-5.3,22.1-7.9,34.7-7.9c10.5,0,18.3,2.4,23.2,7.2c4.9,4.8,7.4,10.8,7.4,18c0,5.6-1.5,11.6-4.4,17.8
			c-2.9,6.3-7.2,12.1-13,17.3c-5.7,5.3-12.8,9.8-21.2,13.5c-8.4,3.7-18,5.9-28.8,6.6c2.2,4.3,5.2,7.6,8.9,9.9
			c3.7,2.4,7.8,3.5,12.3,3.5c10.1,0,20.1-2.8,30.1-8.4c10-5.6,18.2-15.6,24.7-30c1.3-1.3,3-2,5-2c1.3,0,2.6,0.5,3.7,1.3
			c1.1,0.9,1.6,2.1,1.3,3.7c-3.4,10.1-8,19.7-13.8,28.8c-5.8,9.1-12.5,17.1-20,24.1c-7.5,7-15.9,12.5-25.1,16.5
			c-9.2,4-19,6.2-29.3,6.4c-8.3,0-15.4-1.1-21.4-3.4c-5.9-2.2-10.9-5.4-14.8-9.4c-3.9-4-6.8-8.8-8.6-14.1
			C1697.2,206.3,1696.3,200.5,1696.3,194.5z M1742.8,172.9c7,0,13.3-1.7,19.2-5c5.8-3.4,10.9-7.4,15.3-12.1c4.4-4.7,7.8-9.7,10.3-15
			c2.5-5.3,3.7-9.8,3.7-13.6c0-2.5-0.7-4.4-2-5.9c-1.3-1.5-3.6-2.2-6.7-2.2c-4.7,0-9.4,1.6-14.1,4.9c-4.7,3.3-9,7.3-12.8,12.1
			c-3.8,4.8-7,10.2-9.4,16c-2.5,5.8-3.7,11.3-3.7,16.5C1742.4,170.6,1742.6,172,1742.8,172.9z"/>
	</g>
</g>
<path class="st1" d="M133.4,190.5c-0.8,6.7,6,12.5,12.7,12.3c6.7-0.2,12.5-5.2,15.6-11.1c1.1-2.2,2-4.8,0.9-7
	c-1.5-3.3-5.9-3.7-9.6-3.7c-4.7,0.1-9.8,0.3-13.1,3.6c-0.8,0.8-1.5,1.8-2.6,2c-0.7,0.1-1.5,0-2.1,0.4c-1.5,1-0.7,4.5-2.5,4.3"/>
<path class="st1" d="M236.3,159.7c-2.3,0.2-4.7,0.4-6.7,1.6c-3.3,1.9-4.9,6.2-4.3,10c0.1,0.9,0.4,1.7,0.9,2.4c0.5,0.6,1.3,1,2.1,1.2
	c2.4,0.8,5,0.7,7.5,0.6c0.9,0,1.8-0.1,2.6-0.4c0.9-0.3,1.7-1,2.5-1.6c2-1.7,4-3.5,4.8-6c0.2-0.7,0.3-1.5,0-2.2
	c-0.2-0.4-0.5-0.7-0.8-1.1C242.3,161.5,240.2,159.4,236.3,159.7L236.3,159.7z"/>
<path class="st1" d="M477.3,111.7c0.2,1.1,0.4,2.2,0.9,3.2c1.4,2.7,4.5,4.1,7.5,4.3c0.8,0.1,1.6,0,2.4-0.3c1.2-0.5,2-1.7,2.6-2.8
	c1.4-2.8,3-7.5,2.1-10.6c-0.6-2.1-3.7-3.8-5.8-4.3c-1.8-0.5-5.7-0.7-7.4,0.1C476.7,102.7,476.9,109,477.3,111.7L477.3,111.7z"/>
<path class="st1" d="M1696.6,252.4c15.1-0.6,5.9-16.4-4.7-13.9c-3.7,0.9-11,5.1-10.5,9.6C1682.1,253.6,1692.7,252.6,1696.6,252.4
	L1696.6,252.4z"/>
</svg>
